<?xml version="1.0" standalone="no"?>
<!DOCTYPE svg PUBLIC "-//W3C//DTD SVG 20010904//EN"
 "http://www.w3.org/TR/2001/REC-SVG-20010904/DTD/svg10.dtd">
<svg version="1.0" xmlns="http://www.w3.org/2000/svg"
 width="1456.000000pt" height="1456.000000pt" viewBox="0 0 1456.000000 1456.000000"
 preserveAspectRatio="xMidYMid meet">
<metadata>
Created by potrace 1.14, written by Peter Selinger 2001-2017
</metadata>
<g transform="translate(0.000000,1456.000000) scale(0.100000,-0.100000)"
fill="#000000" stroke="none">
<path d="M6926 10148 c0 -189 -3 -348 -7 -353 -5 -6 -172 -10 -469 -10 -254 1
-463 -2 -465 -5 -4 -6 -6 -181 -4 -230 1 -8 0 -44 0 -80 -1 -36 0 -123 1 -195
l3 -130 470 0 470 0 0 -350 0 -350 95 -3 c52 -1 111 -2 130 -2 19 0 116 2 215
3 l180 2 3 350 2 350 888 0 887 0 0 -350 0 -350 100 -3 c55 -2 114 -3 130 -2
17 0 116 2 220 3 l190 2 1 340 c1 187 2 345 3 350 1 12 1755 14 1767 3 4 -4 7
-163 7 -353 l0 -345 319 1 c291 0 318 2 319 17 1 9 2 168 3 352 l1 335 474 0
c438 0 474 1 480 17 5 13 6 593 2 618 -1 3 -209 5 -463 5 -255 -1 -470 1 -479
3 -14 3 -15 43 -15 350 l1 347 -321 3 -321 2 1 -341 c1 -187 -2 -346 -6 -352
-9 -16 -1766 -17 -1771 -2 -1 6 -2 164 -2 353 l1 342 -320 -2 -321 -3 1 -347
c0 -192 -3 -349 -6 -349 -3 -1 -402 -2 -888 -3 l-882 -1 0 353 0 352 -313 0
-312 0 1 -342z"/>
<path d="M4297 8984 c-1 -1 -33 -4 -72 -8 -38 -3 -81 -8 -95 -11 -14 -3 -41
-8 -60 -11 -19 -3 -57 -12 -85 -21 -27 -9 -51 -15 -53 -15 -5 4 -149 -72 -187
-99 -61 -42 -135 -117 -173 -175 -20 -31 -78 -156 -87 -189 -5 -16 -9 -32 -10
-35 -9 -31 -26 -127 -31 -170 -9 -79 -11 -1630 -3 -1660 5 -14 10 -41 13 -60
21 -147 116 -330 231 -445 50 -50 181 -145 200 -145 4 0 21 -6 38 -14 39 -17
92 -34 132 -41 17 -2 41 -8 55 -11 47 -13 1880 -13 1881 0 5 47 4 478 -2 481
-3 3 -118 4 -255 4 -137 0 -258 0 -269 0 -11 1 -36 1 -55 0 -19 0 -39 -1 -45
-1 -18 0 -360 1 -380 1 -11 1 -36 1 -55 0 -19 0 -39 -1 -45 -1 -40 0 -374 1
-390 2 -11 1 -27 1 -35 1 -104 -2 -241 0 -263 4 -15 3 -38 7 -51 9 -63 11
-135 67 -167 128 -37 71 -46 153 -47 411 l0 246 46 0 c26 1 54 1 62 2 13 0
554 1 605 0 11 0 43 0 70 0 28 0 57 0 65 0 19 0 112 0 125 0 12 1 380 -1 575
-2 80 0 152 -1 160 0 8 0 88 0 178 0 101 0 161 4 158 10 -4 5 -3 12 1 14 5 3
5 268 2 589 l-5 583 -26 88 c-15 48 -32 95 -38 103 -7 7 -10 14 -6 14 3 0 -3
15 -14 33 -11 17 -25 43 -32 57 -14 26 -16 29 -91 109 -63 67 -137 116 -237
159 -26 11 -71 25 -80 25 -3 0 -16 4 -30 9 -70 27 -152 31 -643 32 -263 1
-479 1 -480 0z m1005 -547 c84 -25 126 -73 142 -158 11 -60 9 -611 -2 -618 -8
-5 -1422 -7 -1494 -2 -16 1 -17 21 -14 259 2 141 7 271 10 287 21 91 80 175
150 213 65 34 130 38 644 37 449 -1 513 -3 564 -18z"/>
<path d="M739 8965 c-4 -3 -23 -6 -119 -20 -24 -4 -51 -10 -60 -15 -8 -4 -19
-8 -25 -9 -24 -2 -109 -35 -151 -57 -201 -107 -311 -262 -358 -504 -20 -104
-24 -2509 -4 -2511 16 -1 477 -1 500 0 15 1 16 88 16 1159 0 636 3 1182 7
1212 11 85 41 147 89 179 78 53 104 55 686 55 522 0 536 -1 594 -22 76 -28
120 -73 142 -148 16 -55 18 -147 18 -1244 0 -652 3 -1187 7 -1190 6 -4 373 -5
480 -1 l26 1 -2 1228 c-1 872 -5 1241 -13 1277 -6 28 -13 59 -16 70 -16 74
-80 204 -131 264 -113 136 -253 212 -480 260 -83 18 -136 19 -646 20 -306 0
-558 -2 -560 -4z"/>
<path d="M14220 8340 c-110 -23 -208 -116 -228 -215 -27 -133 35 -266 153
-328 59 -32 193 -31 254 1 98 53 153 137 157 245 3 84 -17 144 -70 204 -65 74
-174 112 -266 93z m120 -53 c108 -24 190 -136 185 -251 -4 -107 -57 -187 -148
-226 -155 -68 -315 12 -352 174 -14 63 -10 108 17 166 52 111 173 166 298 137z"/>
<path d="M14255 8146 l0 -71 -70 -1 c-53 -1 -70 -4 -70 -15 0 -15 72 -32 77
-18 2 5 17 5 33 1 29 -8 30 -10 30 -68 0 -32 4 -65 8 -72 16 -24 26 0 25 58
-1 33 3 65 9 71 7 7 38 11 71 10 45 -1 61 3 66 14 6 15 -14 18 -106 17 -42 -1
-39 -8 -40 100 0 37 -4 46 -17 45 -13 -1 -16 -13 -16 -71z"/>
<path d="M6926 7596 c4 -97 16 -203 29 -271 15 -72 36 -162 42 -175 8 -19 8
-19 18 -55 4 -16 12 -36 18 -42 5 -7 7 -13 4 -13 -8 0 60 -156 99 -228 95
-172 192 -301 329 -437 78 -78 284 -245 301 -245 3 0 18 -9 32 -19 41 -29 199
-107 307 -151 36 -15 154 -50 218 -65 116 -26 143 -31 267 -40 41 -3 89 -7
107 -10 18 -2 33 1 35 8 5 17 3 626 -3 630 -2 3 -42 7 -89 10 -204 15 -400 85
-586 212 -87 58 -231 208 -294 304 -30 46 -55 86 -55 90 -1 3 -13 29 -27 56
-27 52 -74 184 -83 232 -2 15 -7 39 -10 53 -10 49 -17 116 -19 165 l-1 50
-321 1 -321 0 3 -60z"/>
<path d="M9327 7645 c-2 -5 -3 -24 -1 -41 4 -68 14 -180 18 -204 3 -14 7 -41
10 -60 6 -34 33 -154 40 -175 2 -5 5 -17 8 -25 3 -8 16 -44 28 -80 65 -193
188 -408 330 -575 30 -35 189 -194 216 -215 91 -72 158 -119 241 -168 83 -49
205 -112 217 -112 2 0 21 -8 42 -17 22 -9 41 -17 44 -18 3 0 34 -10 70 -22 58
-19 115 -34 137 -35 5 0 18 -4 29 -9 12 -4 39 -10 61 -14 21 -3 50 -8 63 -10
14 -3 66 -8 115 -11 50 -2 100 -7 113 -9 13 -3 22 0 23 7 4 42 3 621 -1 628
-3 4 -47 10 -99 14 -51 3 -97 8 -100 11 -4 2 -23 7 -42 10 -130 23 -350 120
-436 192 -12 10 -37 29 -55 43 -33 24 -150 140 -178 176 -78 100 -190 309
-190 353 0 11 -4 22 -9 25 -4 3 -11 20 -15 38 -3 18 -10 54 -15 79 -11 50 -19
121 -23 187 -1 23 -4 43 -7 43 -4 1 -147 2 -318 3 -209 1 -314 -2 -316 -9z"/>
<path d="M11746 7653 c-5 -5 2 -157 9 -205 3 -21 8 -57 11 -80 19 -139 90
-358 162 -503 52 -102 102 -188 114 -193 4 -2 8 -10 8 -18 0 -8 5 -14 10 -14
6 0 10 -5 10 -11 0 -33 202 -256 325 -358 44 -36 82 -69 83 -73 2 -5 9 -8 15
-8 7 0 23 -9 37 -20 62 -50 272 -167 330 -185 14 -4 39 -13 55 -20 48 -21 112
-41 225 -69 127 -31 196 -39 318 -40 l93 -1 0 314 c0 173 -2 315 -3 316 -2 1
-43 5 -93 9 -149 10 -310 56 -440 126 -33 18 -73 39 -90 48 -16 8 -32 18 -35
21 -3 3 -23 19 -45 35 -39 29 -184 171 -215 212 -143 183 -233 426 -244 655
-1 27 -6 52 -10 56 -7 8 -623 13 -630 6z"/>
<path d="M5978 4764 c-4 -4 -95 -7 -203 -6 l-195 0 0 -24 c0 -24 1 -24 105
-24 l105 0 -1 -272 c0 -150 0 -294 1 -320 0 -43 2 -48 23 -48 l23 0 -1 308 c0
169 1 313 3 320 3 8 33 12 103 12 54 0 99 3 100 8 0 4 2 14 4 23 2 13 -4 16
-26 15 -16 -1 -30 2 -32 7 -1 4 -6 5 -9 1z"/>
<path d="M559 4756 c-1 0 -2 -155 -3 -343 l-2 -343 32 0 33 0 0 286 c0 157 1
288 4 290 2 3 35 -44 73 -103 56 -89 120 -186 184 -283 5 -8 35 -54 66 -102
45 -71 61 -88 80 -88 l24 0 0 344 0 344 -24 0 -24 0 2 -293 c0 -161 -2 -291
-5 -289 -5 3 -271 393 -294 431 -5 9 -18 26 -27 37 -10 11 -18 26 -18 33 0 7
-3 13 -8 13 -4 0 -16 15 -26 34 -13 24 -25 34 -42 34 -13 0 -25 -1 -25 -2z"/>
<path d="M1450 4734 c0 -23 3 -23 97 -26 l97 -3 -1 -317 0 -318 24 0 c19 0 23
5 24 33 0 17 2 102 5 187 3 85 6 214 7 285 l3 130 104 5 c97 5 105 7 105 25 0
19 -7 20 -232 21 l-233 2 0 -24z"/>
<path d="M4139 4713 c-11 -26 -23 -60 -26 -75 -3 -16 -9 -28 -14 -28 -5 0 -8
-3 -7 -7 3 -9 1 -13 -92 -263 -35 -91 -71 -189 -81 -217 l-18 -53 23 0 c19 0
28 9 41 43 9 23 24 59 33 80 l16 37 161 -2 160 -3 39 -77 c32 -64 43 -78 62
-78 l23 0 -28 78 c-216 585 -225 607 -249 610 -18 3 -26 -5 -43 -45z m48 -75
c26 -78 86 -246 99 -275 8 -17 14 -37 14 -45 0 -8 5 -19 12 -26 14 -14 22 -13
-150 -14 -67 0 -125 1 -127 4 -3 2 25 85 61 184 37 98 67 185 67 192 1 23 14
12 24 -20z"/>
<path d="M7670 4733 c4 -16 14 -48 23 -73 8 -25 31 -97 52 -160 20 -63 39
-122 42 -130 4 -8 7 -17 8 -20 0 -3 21 -67 45 -142 59 -185 65 -184 125 10 25
81 51 156 56 167 5 11 11 29 13 40 2 11 18 59 34 108 17 48 29 87 26 87 -2 0
2 14 11 30 9 17 13 30 11 30 -3 0 2 16 10 35 18 44 18 45 -9 45 -17 0 -26 -9
-34 -32 -19 -54 -144 -442 -147 -453 -6 -27 -29 -91 -36 -98 -3 -4 -7 -2 -8 5
-1 22 -10 51 -26 91 -9 20 -14 37 -11 37 2 0 -4 20 -15 45 -11 25 -19 46 -18
48 1 2 -49 163 -59 187 -3 8 -7 20 -8 25 -2 6 -13 40 -25 78 -19 57 -25 67
-45 67 -21 0 -23 -3 -15 -27z"/>
<path d="M9859 4753 c-1 -5 -3 -160 -3 -345 l-2 -338 23 0 c13 0 23 6 24 13 0
6 1 128 1 270 0 176 3 257 11 257 6 0 7 -3 4 -7 -4 -3 -3 -11 2 -17 5 -6 36
-72 69 -146 33 -74 72 -161 86 -192 14 -31 26 -61 26 -66 0 -5 9 -12 21 -15
20 -5 59 22 59 42 0 5 17 47 39 93 83 180 100 218 94 218 -3 0 1 8 10 18 8 9
19 29 22 45 17 66 22 10 21 -230 -1 -142 0 -264 2 -270 4 -14 41 -18 43 -5 1
4 2 159 3 344 1 314 0 336 -16 335 -14 -1 -58 -70 -58 -92 0 -2 -18 -41 -39
-85 -22 -44 -40 -83 -40 -85 -1 -6 -55 -128 -92 -205 l-27 -55 -40 85 c-38 82
-57 124 -103 228 -79 176 -99 212 -119 212 -11 0 -21 -3 -21 -7z"/>
<path d="M13270 4733 c-27 -73 -83 -222 -95 -253 -8 -19 -25 -66 -39 -105 -14
-38 -37 -101 -51 -140 -15 -38 -30 -82 -35 -96 -4 -14 -13 -36 -20 -48 -11
-21 -10 -22 16 -19 25 3 32 12 59 80 l30 78 160 0 160 0 40 -80 c32 -64 44
-80 63 -80 12 0 22 2 22 4 0 8 -51 149 -65 181 -7 17 -20 50 -28 75 -9 25 -25
70 -37 100 -11 30 -30 82 -42 115 -11 33 -24 64 -29 70 -5 5 -9 16 -9 25 0 10
-7 31 -16 49 -9 17 -17 39 -18 48 -2 10 -14 18 -29 20 -22 3 -29 -2 -37 -24z
m61 -151 c21 -60 109 -307 109 -307 0 0 -57 1 -128 2 -165 2 -169 2 -157 11 6
4 11 14 12 22 1 14 67 203 109 312 10 26 20 45 23 43 2 -3 17 -40 32 -83z"/>
<path d="M59 4743 c-15 -4 -17 -36 -17 -339 l0 -334 24 0 24 0 0 334 c0 184
-3 337 -7 339 -5 2 -15 2 -24 0z"/>
<path d="M2292 4735 c-4 -5 -7 -157 -8 -337 l-1 -328 209 0 c178 0 208 2 208
15 0 18 10 17 -200 19 l-165 1 0 135 0 134 145 2 c80 1 148 2 152 3 3 0 5 9 3
19 -2 9 -4 19 -4 22 -1 3 -68 4 -150 3 l-150 -1 2 136 2 137 183 0 182 0 0 25
0 25 -201 0 c-123 0 -203 -4 -207 -10z"/>
<path d="M3127 4740 c-9 -4 -12 -84 -12 -337 l0 -333 22 0 c27 0 25 -12 27
164 l1 140 94 0 94 1 39 -85 c109 -237 99 -220 130 -220 15 0 28 2 28 5 0 7
-124 259 -131 265 -15 13 -17 40 -3 40 46 0 132 87 141 144 9 52 9 53 -5 102
-26 90 -88 116 -275 118 -76 0 -143 -1 -150 -4z m324 -60 c60 -25 83 -131 42
-200 -28 -48 -53 -55 -197 -55 l-131 0 -1 130 c-1 72 0 132 2 135 6 12 253 3
285 -10z"/>
<path d="M6434 4738 c-5 -8 -6 -91 -5 -510 1 -158 1 -158 24 -158 l23 0 0 334
c0 315 -1 335 -18 339 -10 3 -21 1 -24 -5z"/>
<path d="M6963 4742 c-23 -3 -23 -5 -22 -177 0 -96 -2 -178 -5 -183 -3 -5 -3
-12 0 -15 6 -6 8 -251 2 -277 -3 -13 28 -15 209 -18 197 -2 212 -1 210 15 -1
17 -15 18 -184 17 l-183 -2 0 134 c0 100 3 134 13 135 6 1 71 2 142 4 163 3
153 1 148 28 -4 22 -6 22 -154 20 l-149 -2 0 135 c0 100 3 134 13 135 6 1 89
2 182 3 168 1 170 1 173 24 2 12 0 22 -5 23 -36 2 -373 3 -390 1z"/>
<path d="M8537 4740 c-9 -4 -12 -83 -12 -335 l0 -330 208 -3 c192 -2 207 -1
207 15 0 17 -14 18 -184 17 l-183 -1 2 131 c1 72 3 133 4 136 0 3 64 5 141 5
149 -2 172 3 154 32 -9 15 -30 17 -155 17 l-144 1 -1 125 c0 69 1 130 3 135 2
7 68 10 179 10 156 -1 177 1 185 17 6 11 5 19 -2 24 -13 8 -383 12 -402 4z"/>
<path d="M10908 4742 c-16 -2 -28 -9 -29 -15 -1 -15 -1 -628 0 -644 1 -17 406
-19 416 -2 4 6 5 13 2 16 -3 3 -87 5 -186 6 -100 0 -181 3 -182 6 -7 42 -2
261 6 264 6 1 74 3 153 2 l142 -1 0 26 0 25 -149 -2 c-132 -1 -149 0 -153 15
-3 15 -2 176 1 237 1 19 8 20 168 19 190 -2 202 0 198 24 -2 9 -4 19 -4 22 -1
5 -338 7 -383 2z"/>
<path d="M11733 4742 l-22 -3 0 -335 0 -334 165 0 c166 0 192 5 224 39 58 62
73 125 73 311 1 187 -30 258 -130 302 -34 15 -70 20 -166 21 -67 1 -132 1
-144 -1z m287 -62 c44 -24 75 -63 87 -110 2 -8 3 -75 3 -149 -1 -197 -22 -268
-90 -298 -43 -19 -246 -28 -256 -12 -5 9 -9 157 -3 184 1 6 1 13 0 17 -4 30
-3 166 2 174 3 6 2 16 -3 24 -4 7 -4 23 0 36 5 12 6 24 4 27 -5 5 -8 78 -5
112 1 15 231 11 261 -5z"/>
<path d="M12609 4720 c-1 -32 -1 -632 0 -642 1 -5 11 -8 24 -8 l22 0 -1 333
c-1 182 -2 334 -3 337 0 3 -10 6 -21 6 -15 0 -20 -7 -21 -26z"/>
<path d="M4955 4720 c-42 -9 -98 -39 -113 -61 -7 -10 -19 -24 -26 -32 -25 -25
-35 -86 -35 -224 0 -159 8 -211 39 -255 38 -55 100 -78 204 -78 95 0 128 12
173 64 29 33 64 102 56 110 -16 15 -35 3 -49 -31 -28 -68 -61 -101 -115 -117
-27 -8 -55 -13 -62 -11 -7 3 -25 7 -42 9 -39 7 -75 35 -100 77 -18 30 -20 55
-23 205 -2 184 4 221 46 266 56 61 180 69 237 15 30 -29 65 -87 65 -109 0 -13
6 -17 23 -14 62 10 -50 163 -134 182 -39 9 -112 11 -144 4z"/>
</g>
</svg>
