<svg width="151" height="151" viewBox="0 0 151 151" fill="none" xmlns="http://www.w3.org/2000/svg">
<g clip-path="url(#clip0_1_25)">
<path d="M100.958 78.7951C109.111 70.5098 118.47 59.0295 118.47 43.665C118.47 19.588 99.1937 0 75.4999 0C51.8062 0 32.5303 19.588 32.5303 43.6653C32.5303 59.0295 41.8889 70.5105 50.0423 78.7954C53.8419 82.6565 53.862 89.7725 53.7633 95.2178H53.0321C51.3301 95.2178 49.9504 96.6198 49.9504 98.3493V136.821C49.9504 138.55 51.3301 139.952 53.0321 139.952H57.1306V147.869C57.1306 149.598 58.5106 151 60.2123 151H90.7879C92.4896 151 93.8695 149.598 93.8695 147.869V139.952H97.9684C99.6701 139.952 101.05 138.55 101.05 136.821V98.3493C101.05 96.6198 99.6701 95.2178 97.9684 95.2178H97.2369C97.1382 89.7718 97.1583 82.6565 100.958 78.7951ZM87.706 144.737H63.2936V139.952H87.706V144.737ZM56.1137 133.689V126.936H97.9684C99.6701 126.936 104.557 124.093 94.8865 124.093C94.8865 122.363 99.6701 120.673 97.9684 120.673H56.1137V101.481H94.8865V108.234H55C53.298 108.234 53.7633 109.771 53.7633 111.5C53.7633 113.23 53.298 114.497 55 114.497H94.8865V133.689H56.1137ZM81.3304 95.2178L92.4665 60.4616C92.8461 59.2766 92.4982 57.9755 91.5799 57.1485C90.6622 56.3221 89.3488 56.1276 88.2363 56.6531L83.0675 59.0959L78.3813 51.5087C77.8096 50.583 76.8081 50.0231 75.7289 50.0422C74.6534 50.0572 73.6633 50.6413 73.1169 51.5826L68.717 59.1636L62.6465 56.6001C61.5287 56.1285 60.2434 56.3647 59.3599 57.2045C58.4761 58.0441 58.1574 59.3311 58.5448 60.496L70.1074 95.2178H59.9275C60.0375 88.9652 59.9722 80.0292 54.4 74.3666C46.6331 66.4743 38.6929 56.6546 38.6929 43.6653C38.6929 23.0417 55.2043 6.26326 75.4993 6.26326C95.7943 6.26326 112.306 23.0417 112.306 43.6653C112.306 56.6546 104.366 66.4743 96.5993 74.3666C91.0274 80.0289 90.9617 88.9652 91.0714 95.2178H81.3304ZM75.7144 92.515L66.5635 65.0363L68.8276 65.9924C70.2476 66.5914 71.8836 66.0365 72.6642 64.6912L75.8534 59.1968L79.2925 64.7648C80.1181 66.1013 81.7933 66.6046 83.2025 65.9398L84.4133 65.3673L75.7144 92.515Z" fill="#E70082"/>
<path d="M147.918 34.5469H134.402C132.701 34.5469 131.321 35.9488 131.321 37.6783C131.321 39.4079 132.701 40.8098 134.402 40.8098H147.918C149.62 40.8098 151 39.4079 151 37.6783C151 35.9485 149.62 34.5469 147.918 34.5469Z" fill="#E70082"/>
<path d="M130.566 27.7475C131.203 27.7475 131.846 27.547 132.397 27.1321L140.691 20.8886C142.059 19.8593 142.346 17.898 141.333 16.5083C140.319 15.1185 138.389 14.8267 137.022 15.8563L128.729 22.0992C127.361 23.1289 127.073 25.0901 128.087 26.4795C128.691 27.3087 129.622 27.7475 130.566 27.7475Z" fill="#E70082"/>
<path d="M140.691 54.4671L132.397 48.2242C131.029 47.1948 129.099 47.487 128.087 48.8761C127.073 50.2662 127.361 52.2271 128.729 53.2564L137.022 59.5C137.574 59.9149 138.217 60.1153 138.854 60.1153C139.797 60.1153 140.728 59.6769 141.332 58.8474C142.346 57.4579 142.058 55.4967 140.691 54.4671Z" fill="#E70082"/>
<path d="M19.679 37.6783C19.679 35.9488 18.299 34.5469 16.5974 34.5469H3.08163C1.37965 34.5469 0 35.9488 0 37.6783C0 39.4079 1.37965 40.8098 3.08163 40.8098H16.5974C18.2994 40.8098 19.679 39.4075 19.679 37.6783Z" fill="#E70082"/>
<path d="M22.2719 22.0994L13.978 15.8565C12.6103 14.8272 10.6806 15.1193 9.6677 16.5088C8.65446 17.8985 8.94197 19.8594 10.3096 20.8887L18.6035 27.1323C19.1551 27.5472 19.7979 27.7476 20.4352 27.7476C21.3785 27.7476 22.3095 27.3092 22.9138 26.4797C23.9273 25.0902 23.6398 23.129 22.2719 22.0994Z" fill="#E70082"/>
<path d="M18.6031 48.2244L10.3092 54.4673C8.94127 55.4969 8.65406 57.4581 9.6673 58.8476C10.2716 59.6768 11.2026 60.1155 12.1459 60.1155C12.7831 60.1155 13.4263 59.9151 13.9776 59.5002L22.2715 53.2566C23.6391 52.2273 23.9266 50.2661 22.9134 48.8767C21.9008 47.4869 19.9704 47.1947 18.6031 48.2244Z" fill="#E70082"/>
</g>
<defs>
<clipPath id="clip0_1_25">
<rect width="151" height="151" fill="white"/>
</clipPath>
</defs>
</svg>
