<svg width="105" height="100" viewBox="0 0 105 100" fill="none" xmlns="http://www.w3.org/2000/svg">
<path d="M67.7373 8.26172C62.877 12.8711 62.3438 13.457 62.3438 14.0234C62.3438 14.4531 62.5078 14.8242 62.8564 15.1367C63.3076 15.5859 63.5127 15.625 65.3174 15.625H67.2656V17.1875V18.75L38.4111 18.7891L9.53613 18.8477L8.16211 19.4727C6.25488 20.332 5.06543 21.4258 4.14258 23.2031L3.38379 24.6875L3.32227 28.75V32.625L4.90137 32.8125H6.5625V29.375C6.5625 27.2266 6.66504 25.625 6.80859 25.1172C7.13672 24.043 8.83887 22.4219 9.9668 22.1094C10.623 21.9336 17.4727 21.875 39.0469 21.875H67.2656V36.7188V51.5625H68.9062H70.5469V32.5391C70.5469 14.3555 70.5264 13.4961 70.1777 13.0664C69.9316 12.793 69.4805 12.5977 68.9268 12.5195L68.0859 12.4023L70.957 9.66797L73.8281 6.93359L76.6992 9.66797L79.5703 12.4023L78.7295 12.5195C78.1758 12.5977 77.7246 12.793 77.4785 13.0664C77.1299 13.4961 77.1094 14.3359 77.1094 31.7578V50H78.75H80.3906V35.9375V21.875H84C86.2559 21.875 87.9375 21.9727 88.4707 22.1094C89.5986 22.4219 91.3008 24.043 91.6289 25.1172C91.8135 25.7227 91.875 29.9219 91.875 41.875V57.8125H93.5156H95.1768L95.1152 41.25L95.0537 24.707L94.3975 23.3984C93.4951 21.582 92.3467 20.4492 90.4805 19.5703L88.9219 18.8477L84.6562 18.7891L80.3906 18.7109V17.168V15.625H82.3389C84.1436 15.625 84.3486 15.5859 84.7998 15.1367C85.1484 14.8242 85.3125 14.4531 85.3125 14.0234C85.3125 13.457 84.7793 12.8711 79.9189 8.26172C74.9561 3.51562 74.4844 3.125 73.8281 3.125C73.1719 3.125 72.7002 3.51562 67.7373 8.26172Z" fill="#E70082"/>
<path d="M11.4844 26.5625V28.125H13.125H14.7656V26.5625V25H13.125H11.4844V26.5625Z" fill="#E70082"/>
<path d="M18.0469 26.5625V28.125H19.6875H21.3281V26.5625V25H19.6875H18.0469V26.5625Z" fill="#E70082"/>
<path d="M24.6094 26.5625V28.125H26.25H27.8906V26.5625V25H26.25H24.6094V26.5625Z" fill="#E70082"/>
<path d="M51.3721 27.0508L50.8594 27.5195V45.0195V62.5H49.2188H47.5781V50.4883V38.457L47.0654 37.9883L46.5732 37.5H41.0156H35.458L34.9658 37.9883L34.4531 38.457V50.4883V62.5H32.8125H31.1719V55.957V49.3945L30.6592 48.9258L30.167 48.4375H24.6094H19.0518L18.5596 48.9258L18.0469 49.3945V55.957V62.5H14.7656H11.4844V64.0625V65.625H32.8125H54.1406V47.6562V29.6875H57.4219H60.7031V42.1875V54.6875H62.3438H63.9844V41.1133V27.5195L63.4717 27.0508L62.9795 26.5625H57.4219H51.8643L51.3721 27.0508ZM44.2969 51.5625V62.5H41.0156H37.7344V51.5625V40.625H41.0156H44.2969V51.5625ZM27.8906 57.0312V62.5H24.6094H21.3281V57.0312V51.5625H24.6094H27.8906V57.0312Z" fill="#E70082"/>
<path d="M3.32227 55.6055L3.38379 75.293L4.04004 76.6016C4.94238 78.418 6.09082 79.5508 7.95703 80.4297L9.51562 81.1523L24.1582 81.2109C37.8779 81.25 38.7803 81.2891 38.6777 81.6016C38.3086 82.793 35.9502 90.2734 35.458 91.8359L34.8428 93.75H33.0176H31.1719V95.3125V96.875H49.2188H67.2656V95.3125V93.75H65.4199H63.5947L62.9795 91.8359C62.6514 90.8008 62.1797 89.2969 61.9336 88.5156C61.6875 87.7539 61.4414 87.1094 61.3799 87.1094C60.8262 87.1094 58.4473 87.9688 58.4473 88.1641C58.4473 88.3008 58.8164 89.5898 59.2676 91.0156C59.7188 92.4414 60.0879 93.6523 60.0879 93.6914C60.0879 93.7305 55.207 93.75 49.2188 93.75C43.251 93.75 38.3496 93.6914 38.3496 93.5938C38.3496 93.5156 39.2314 90.7422 40.2773 87.4023L42.2051 81.3477L48.1729 81.2891L54.1406 81.25V79.6875V78.125H32.4844C16.0781 78.125 10.6025 78.0664 9.9668 77.8906C8.83887 77.5781 7.13672 75.957 6.80859 74.8828C6.66504 74.4336 6.5625 73.5742 6.5625 72.9688V71.875H29.5312H52.5V70.3125V68.75H29.5312H6.5625V52.3438V30L5 32.5L3.32227 31.5L3.32227 55.6055Z" fill="#E70082"/>
<path d="M72.7002 53.2617C68.4141 53.9063 64.8457 55.625 61.7695 58.4766C59.0625 60.9766 57.3399 63.75 56.376 67.1875C55.7402 69.3945 55.6992 74.1797 56.2734 76.1719C57.3809 79.9609 59.165 82.9102 61.8721 85.3711C67.9424 90.8789 76.6992 92.168 84.2051 88.6523L85.5381 88.0273L89.9883 92.2266C94.6641 96.6211 95.0332 96.875 96.8379 96.875C99.3809 96.875 101.719 94.6289 101.719 92.1875C101.719 90.5078 101.452 90.1367 96.8379 85.7031L92.4287 81.4648L93.085 80.1953C96.7149 73.1445 95.4434 64.7656 89.8447 59.1406C85.9482 55.1953 81.7031 53.3789 76.084 53.2227C74.5664 53.1836 73.0488 53.2031 72.7002 53.2617ZM79.3652 56.6992C81.416 57.2461 82.8106 57.8125 84.3486 58.7891C93.1055 64.2188 94.3975 75.8789 87.0352 82.8906C79.6729 89.9023 67.4297 88.6719 61.7285 80.332C59.9033 77.6758 59.165 75.2734 59.165 71.875C59.165 68.4766 59.9033 66.0742 61.708 63.4375C64.1484 59.8828 67.9424 57.4219 72.3926 56.5234C74.0332 56.1914 77.7656 56.2891 79.3652 56.6992ZM98.4375 92.1484C98.4375 93.0078 97.6582 93.75 96.7764 93.75C96.1816 93.75 95.6484 93.3203 92.1416 90L88.1836 86.25L89.3525 85.1172L90.542 83.9648L94.4795 87.7539C97.9863 91.0938 98.4375 91.6016 98.4375 92.1484Z" fill="#E70082"/>
<path d="M72.5977 59.668C68.9883 60.4102 65.3994 63.0859 63.7998 66.25C61.8721 70.0391 61.8721 73.7109 63.7998 77.5C65.8711 81.6016 70.5879 84.375 75.4687 84.375C80.3291 84.375 84.9228 81.6602 87.1172 77.5391C89.1475 73.6719 89.0449 69.2773 86.8096 65.625C83.959 60.9766 78.1758 58.5352 72.5977 59.668ZM77.8271 62.793C82.708 64.0039 85.8867 68.4766 85.1689 73.1641C84.5537 77.3047 81.1494 80.5273 76.7812 81.1133C70.0342 82.0508 64.2305 75.918 65.9326 69.668C67.3066 64.6289 72.6797 61.5234 77.8271 62.793Z" fill="#E70082"/>
<path d="M73.9102 65.8008C72.9463 66.0352 71.1826 67.0117 70.6289 67.6367C69.8496 68.5156 69.1729 69.9219 69.0088 70.957L68.8652 71.875H70.4854H72.1055L72.3516 71.0156C72.6387 70 73.7051 69.0234 74.751 68.8281L75.4688 68.7109V67.168C75.4688 65.4687 75.4688 65.4492 73.9102 65.8008Z" fill="#E70082"/>
</svg>
