<svg width="312" height="298" viewBox="0 0 312 298" fill="none" xmlns="http://www.w3.org/2000/svg">
<path d="M201.277 24.6199C186.835 38.3559 185.25 40.1019 185.25 41.7897C185.25 43.0702 185.737 44.1761 186.773 45.1074C188.114 46.446 188.723 46.5625 194.086 46.5625H199.875V51.2188V55.875L114.136 55.9915L28.3359 56.1661L24.2531 58.0286C18.5859 60.5894 15.0516 63.8489 12.3094 69.1452L10.0547 73.5688L9.87189 85.675V97.2225L14.5641 97.7813H19.5V87.5375C19.5 81.1353 19.8047 76.3625 20.2312 74.8493C21.2063 71.6481 26.2641 66.8173 29.6156 65.886C31.5655 65.3621 51.9189 65.1875 116.025 65.1875H199.875V109.422V153.656H204.75H209.625V96.9665C209.625 42.7794 209.564 40.2184 208.528 38.9379C207.797 38.1231 206.456 37.5411 204.811 37.3081L202.312 36.9589L210.844 28.8105L219.375 20.6621L227.906 28.8105L236.437 36.9589L233.939 37.3081C232.294 37.5411 230.953 38.1231 230.222 38.9379C229.186 40.2184 229.125 42.721 229.125 94.6382V149H234H238.875V107.094V65.1875H249.6C256.303 65.1875 261.3 65.4786 262.884 65.886C266.236 66.8173 271.294 71.6481 272.269 74.8493C272.817 76.6536 273 89.1673 273 124.788V172.281H277.875H282.811L282.628 122.925L282.445 73.6269L280.495 69.7272C277.814 64.3144 274.402 60.9386 268.856 58.3195L264.225 56.1661L251.55 55.9915L238.875 55.7585V51.1606V46.5625H244.664C250.027 46.5625 250.636 46.446 251.977 45.1074C253.012 44.1761 253.5 43.0702 253.5 41.7897C253.5 40.1019 251.916 38.3559 237.473 24.6199C222.727 10.4765 221.325 9.3125 219.375 9.3125C217.425 9.3125 216.023 10.4765 201.277 24.6199Z" fill="white"/>
<path d="M34.1251 79.1563V83.8125H39H43.8749V79.1563V74.5H39H34.1251V79.1563Z" fill="white"/>
<path d="M53.6251 79.1563V83.8125H58.5H63.3749V79.1563V74.5H58.5H53.6251V79.1563Z" fill="white"/>
<path d="M73.1251 79.1563V83.8125H78H82.8749V79.1563V74.5H78H73.1251V79.1563Z" fill="white"/>
<path d="M152.649 80.6114L151.125 82.0081V134.158V186.25H146.25H141.375V150.455V114.602L139.851 113.205L138.389 111.75H121.875H105.361L103.898 113.205L102.375 114.602V150.455V186.25H97.5H92.6251V166.752V147.196L91.1016 145.799L89.6391 144.344H73.1251H56.6111L55.1485 145.799L53.6251 147.196V166.752V186.25H43.8749H34.1251V190.906V195.563H97.5H160.875V142.015V88.4688H170.625H180.375V125.719V162.969H185.25H190.125V122.518V82.0081L188.602 80.6114L187.139 79.1562H170.625H154.111L152.649 80.6114ZM131.625 153.656V186.25H121.875H112.125V153.656V121.063H121.875H131.625V153.656ZM82.8749 169.953V186.25H73.1251H63.3749V169.953V153.656H73.1251H82.8749V169.953Z" fill="white"/>
<path d="M9.87189 165.704L10.0547 224.373L12.0047 228.273C14.6859 233.686 18.0984 237.061 23.6437 239.681L28.275 241.834L71.7844 242.009C112.551 242.125 115.233 242.242 114.928 243.173C113.831 246.723 106.823 269.015 105.361 273.671L103.533 279.375H98.1094H92.6251V284.031V288.688H146.25H199.875V284.031V279.375H194.391H188.967L187.139 273.671C186.164 270.586 184.763 266.105 184.031 263.777C183.3 261.507 182.569 259.586 182.386 259.586C180.741 259.586 173.672 262.147 173.672 262.729C173.672 263.136 174.769 266.978 176.109 271.227C177.45 275.475 178.547 279.084 178.547 279.2C178.547 279.317 164.044 279.375 146.25 279.375C128.517 279.375 113.953 279.2 113.953 278.91C113.953 278.677 116.573 270.412 119.681 260.459L125.409 242.416L143.142 242.242L160.875 242.125V237.469V232.813H96.5251C47.7749 232.813 31.5046 232.638 29.6156 232.114C26.2641 231.183 21.2063 226.352 20.2312 223.151C19.8047 221.812 19.5 219.251 19.5 217.447V214.188H87.7499H156V209.531V204.875H87.7499H19.5V155.985V89.4L14.8572 96.85L9.8719 93.87L9.87189 165.704Z" fill="white"/>
<path d="M216.023 158.72C203.288 160.641 192.684 165.762 183.544 174.26C175.5 181.71 170.381 189.975 167.517 200.219C165.628 206.796 165.506 221.055 167.212 226.992C170.503 238.283 175.805 247.072 183.849 254.406C201.886 270.819 227.906 274.661 250.209 264.184L254.17 262.321L267.394 274.835C281.288 287.931 282.384 288.687 287.747 288.687C295.303 288.687 302.251 281.994 302.251 274.719C302.251 269.713 301.457 268.607 287.747 255.395L274.645 242.765L276.595 238.982C287.381 217.971 283.603 193.001 266.967 176.239C255.389 164.482 242.775 159.069 226.078 158.604C221.569 158.487 217.059 158.545 216.023 158.72ZM235.828 168.964C241.922 170.593 246.066 172.281 250.636 175.192C276.656 191.372 280.495 226.119 258.619 247.014C236.742 267.909 200.363 264.242 183.422 239.389C177.998 231.474 175.805 224.315 175.805 214.187C175.805 204.06 177.998 196.901 183.361 189.044C190.612 178.451 201.886 171.117 215.109 168.44C219.984 167.45 231.075 167.742 235.828 168.964ZM292.5 274.602C292.5 277.163 290.184 279.375 287.564 279.375C285.797 279.375 284.212 278.094 273.792 268.2L262.031 257.025L265.505 253.649L269.039 250.215L280.739 261.507C291.159 271.46 292.5 272.973 292.5 274.602Z" fill="white"/>
<path d="M215.719 177.811C204.994 180.022 194.33 187.996 189.577 197.425C183.849 208.717 183.849 219.658 189.577 230.95C195.731 243.173 209.747 251.437 224.25 251.437C238.692 251.437 252.342 243.347 258.863 231.067C264.895 219.542 264.591 206.446 257.949 195.562C249.478 181.71 232.294 174.435 215.719 177.811ZM231.258 187.123C245.761 190.732 255.206 204.06 253.073 218.029C251.245 230.368 241.13 239.971 228.15 241.718C208.102 244.511 190.856 226.236 195.914 207.611C199.997 192.594 215.963 183.34 231.258 187.123Z" fill="white"/>
<path d="M219.619 196.086C216.755 196.785 211.514 199.695 209.869 201.557C207.553 204.176 205.542 208.367 205.055 211.452L204.628 214.187H209.442H214.256L214.988 211.626C215.841 208.6 219.009 205.69 222.117 205.108L224.25 204.758V200.161C224.25 195.097 224.25 195.039 219.619 196.086Z" fill="white"/>
</svg>
