<svg width="151" height="151" viewBox="0 0 151 151" fill="none" xmlns="http://www.w3.org/2000/svg">
<path d="M70.4863 0.324429C52.1127 2.35939 36.6588 16.1027 32.5004 34.093C31.4977 38.4283 31.2617 41.9379 31.2617 53.1744C31.2617 65.0598 31.3502 65.8561 33.1197 68.1859C33.6506 68.8938 34.7713 69.8375 35.5971 70.3389L37.1012 71.2236L37.2191 74.0254C37.3666 77.358 37.9859 78.9801 39.8145 80.8086C41.5545 82.5486 43.2945 83.2565 46.2438 83.4039L48.6916 83.5514L49.4584 85.0555C50.4611 87.0609 51.6998 88.86 53.4398 90.8949L54.885 92.576L52.3781 97.5602L49.8713 102.544L41.3775 105.405C30.2295 109.18 26.8969 110.95 21.4703 116.14C14.1268 123.189 9.67344 131.919 8.11035 142.3C7.87441 143.922 7.66797 146.075 7.66797 147.078C7.66797 148.7 7.78594 149.054 8.52324 149.879L9.37852 150.853L75.323 150.941L141.268 151L142.211 150.174C143.008 149.437 143.155 149.083 143.273 147.549C143.332 146.606 143.185 144.335 142.919 142.536C141.356 131.978 136.932 123.248 129.53 116.14C124.103 110.95 120.771 109.18 109.622 105.405L101.129 102.544L98.6219 97.5602L96.115 92.576L97.5602 90.8949C101.276 86.5596 103.754 81.3395 104.815 75.6475C105.081 74.1729 105.376 72.6983 105.435 72.3738C105.582 71.7545 105.759 71.725 109.328 71.607C112.395 71.5186 113.368 71.3711 114.459 70.8697C116.229 70.0734 118.146 68.1565 118.971 66.3869C119.561 65.0893 119.591 64.5584 119.679 54.1182C119.738 47.5119 119.65 41.9379 119.443 39.9619C118.411 29.6102 114.253 20.733 106.968 13.301C97.4127 3.53908 84.0822 -1.17967 70.4863 0.324429ZM82.7256 6.63576C90.6885 8.28732 96.9113 11.6494 102.515 17.2235C108.679 23.3873 112.336 30.8193 113.486 39.4311L113.751 41.2891H110.891H108.059L107.676 38.2809C106.408 27.9881 100.362 19.4354 91.1898 14.8936C86.4711 12.5637 82.5781 11.7969 75.5 11.7969C68.4219 11.7969 64.5289 12.5637 59.8102 14.8936C50.6381 19.4354 44.5922 27.9881 43.324 38.2809L42.9406 41.2891H40.0799C37.5141 41.2891 37.2191 41.2301 37.3076 40.7582C37.3666 40.4928 37.573 39.1951 37.75 37.8975C38.4873 33.0018 40.5518 27.7522 43.6779 22.9744C45.8309 19.6713 50.7561 14.6871 53.9117 12.5932C58.4535 9.55548 64.352 7.19611 69.0117 6.51779C70.2209 6.34083 71.548 6.13439 71.9609 6.07541C73.4945 5.80998 80.4547 6.16388 82.7256 6.63576ZM82.3422 18.1082C86.6775 18.9635 89.8037 20.4086 93.2248 23.1514C98.5334 27.4277 101.571 33.6506 101.954 40.9352L102.131 44.2678L100.834 44.0613C97.3242 43.56 92.1336 42.3803 89.7742 41.5545C84.0232 39.549 77.7709 35.9215 73.7305 32.235C71.0172 29.7871 70.5453 29.4922 69.0117 29.4922C66.033 29.4922 60.7834 30.7899 57.9816 32.2055C55.5338 33.4442 52.8795 35.3317 51.051 37.1897L49.1635 39.0772L49.3404 37.6615C49.8418 34.0045 52.0242 29.4037 54.826 26.0121C58.0996 22.0897 63.4672 19.0225 68.8643 18.0197C71.2826 17.5774 79.8943 17.6363 82.3422 18.1082ZM69.808 36.6588C77.6824 43.619 87.2969 47.9838 98.6219 49.6649C100.214 49.9008 101.601 50.1662 101.66 50.2547C101.896 50.4906 101.217 58.9844 100.568 64.4109C98.9758 77.358 97.6191 81.4869 93.2838 86.8545C90.482 90.3051 85.7338 93.4018 81.3984 94.5815C78.7441 95.3188 72.2559 95.3188 69.6016 94.5815C64.9418 93.3133 60.0461 89.9807 57.0084 85.9697C56.1531 84.849 55.4453 83.8168 55.4453 83.6988C55.4453 83.5514 56.743 83.4629 58.3355 83.4629L61.1963 83.4924L62.0811 84.9965C63.1723 86.9135 65.0008 88.3291 67.1242 88.9484C69.6311 89.6563 77.2105 89.4498 79.0686 88.565C80.8381 87.7688 82.7551 85.8518 83.5514 84.0822C84.4361 82.1947 84.4361 78.8326 83.5514 76.9451C82.7551 75.1756 80.8381 73.2586 79.0686 72.4623C77.2105 71.5775 69.6311 71.3711 67.1242 72.0789C65.0008 72.6983 63.1723 74.1139 62.0811 76.0309L61.1963 77.535L56.8609 77.5645C54.4426 77.5645 52.4961 77.476 52.4961 77.3285C52.4961 77.2106 52.2896 76.1783 52.0537 75.0576C51.0215 70.044 49.7238 59.1024 49.3699 52.4961L49.193 48.8096L51.5229 45.7129C52.8205 44.0024 54.767 41.7904 55.8582 40.7877C59.0729 37.8385 63.5852 35.8625 68.0385 35.4201C68.2449 35.4201 69.0412 35.951 69.808 36.6588ZM43.1766 48.5736C43.265 49.3699 43.4125 51.5818 43.501 53.5283C43.6189 55.4748 43.8844 58.7779 44.1203 60.9014C44.3268 62.9953 44.5332 64.9713 44.5332 65.2662C44.5332 65.7676 44.2973 65.8266 41.7314 65.7086C39.1361 65.6201 38.8707 65.5611 38.1334 64.7943L37.3076 63.9981L37.2191 55.5928L37.1307 47.1875H40.0799H42.9996L43.1766 48.5736ZM113.781 55.5928L113.692 63.9981L112.867 64.7943C112.129 65.5611 111.864 65.6201 109.269 65.7086C106.703 65.8266 106.467 65.7676 106.467 65.2662C106.467 64.9713 106.673 62.9953 106.88 60.9014C107.116 58.7779 107.381 55.4158 107.499 53.3809C107.588 51.3459 107.735 49.134 107.823 48.4262L107.971 47.1875H110.92H113.869L113.781 55.5928ZM45.5654 72.3149C45.6244 72.6983 45.8309 73.819 46.0078 74.8512C46.1848 75.8834 46.4207 76.9156 46.5092 77.1811C46.8041 77.9184 44.8576 77.417 43.9434 76.5322C43.3535 75.9129 43.2061 75.441 43.1176 73.7305L42.9996 71.666H44.2088C45.2115 71.666 45.418 71.784 45.5654 72.3149ZM77.476 78.5082C78.6852 79.7469 78.6262 81.4574 77.299 82.6371L76.3258 83.5219L72.3738 83.4039C68.5988 83.3154 68.3924 83.2859 67.6846 82.5486C66.5934 81.4869 66.4164 79.9828 67.2422 78.9506C68.2449 77.7119 68.8053 77.5645 72.9047 77.6529C76.5617 77.7119 76.6797 77.7414 77.476 78.5082ZM93.9621 101.188L95.9086 105.081L95.1123 107.293C94.0506 110.242 91.9566 115.167 90.482 118.087L89.3023 120.417L84.3182 115.432L79.334 110.448L80.6022 109.121C81.31 108.384 84.1117 105.435 86.825 102.544C89.5678 99.6836 91.8387 97.3242 91.8977 97.3242C91.9566 97.3242 92.8709 99.0643 93.9621 101.188ZM66.4459 115.521C63.9096 118.175 61.7861 120.328 61.7271 120.328C61.4617 120.328 57.8637 112.454 56.4775 108.856L55.0619 105.228L56.802 101.719L58.5125 98.209L64.7943 104.461L71.0467 110.684L66.4459 115.521ZM75.8244 101.011H80.1598L77.7709 103.518C76.4438 104.904 75.2936 106.054 75.2051 106.113C75.1166 106.142 73.7895 104.904 72.2559 103.37C69.5721 100.686 69.5131 100.568 70.4863 100.775C71.0467 100.922 73.465 101.011 75.8244 101.011ZM51.6113 112.66C54.7375 120.446 58.9549 128.203 64.4404 136.254C65.9445 138.436 67.832 141.327 68.6873 142.683L70.1914 145.102H41.9379H13.6549L13.9203 143.096C15.4834 131.329 22.8564 120.387 32.8838 114.961C35.1252 113.751 48.9865 108.797 49.7828 108.915C49.9893 108.944 50.815 110.625 51.6113 112.66ZM108.354 111.186C112.218 112.483 116.435 114.105 117.762 114.784C127.908 120.063 135.517 131.181 137.08 143.096L137.345 145.102H109.062H80.8086L82.3127 142.683C83.168 141.327 85.0555 138.436 86.5596 136.254C91.9272 128.379 95.8201 121.301 98.8578 113.84C99.7721 111.657 100.568 109.622 100.657 109.328C100.775 109.062 100.952 108.826 101.099 108.826C101.247 108.826 104.491 109.888 108.354 111.186ZM80.7201 120.387C83.6988 123.366 86.1172 125.902 86.1172 126.05C86.1172 126.197 84.7016 128.438 82.9615 131.004C81.192 133.6 78.8916 137.139 77.7709 138.849C76.6797 140.589 75.6475 142.005 75.5 142.005C75.3525 142.005 74.3203 140.589 73.2291 138.849C72.1084 137.139 69.7785 133.57 68.009 130.975C66.2689 128.35 64.8828 126.05 64.9713 125.843C65.1482 125.401 74.9102 115.02 75.1756 115.02C75.2641 115.02 77.7709 117.438 80.7201 120.387Z" fill="#E70082"/>
</svg>
