<svg width="151" height="151" viewBox="0 0 151 151" fill="none" xmlns="http://www.w3.org/2000/svg">
<path d="M53.532 5.1805C48.5479 6.47816 45.5102 11.4034 46.5719 16.4465L46.9258 18.0391L45.8051 18.9239C40.2605 23.3477 34.4211 30.2489 31.7078 35.5869L31 36.9731L33.035 37.9463C34.1852 38.5067 35.1289 38.8901 35.2174 38.8016C35.2764 38.7426 35.9547 37.6219 36.7215 36.3243C39.6117 31.4875 44.2715 26.1494 48.2824 22.9938L49.7865 21.8141L51.6445 22.7284C53.2961 23.5246 53.7975 23.6426 55.8914 23.6131C58.4277 23.6131 60.1973 22.9643 62.1438 21.3127C63.3529 20.2805 64.798 17.4493 65.0635 15.5912C65.2404 14.0871 65.2994 14.0577 66.4791 13.7332C73.2033 11.9342 81.0188 11.5508 87.7135 12.7305C89.1586 12.9959 90.4563 13.0844 90.5447 12.9664C90.8691 12.6125 91.6654 8.74906 91.459 8.63109C91.3705 8.57211 89.8369 8.27718 88.0379 7.98226C85.649 7.56937 83.3191 7.42191 79.1902 7.4514C73.4688 7.4514 70.5785 7.80531 65.8598 9.01449C64.6801 9.3389 63.7068 9.48636 63.7068 9.3684C63.7068 8.80804 61.023 6.50765 59.6074 5.85882C57.9264 5.09203 55.0951 4.76761 53.532 5.1805ZM57.602 10.0467C60.6396 11.3149 61.377 15.2668 59.0176 17.6262C57.1006 19.5432 54.3873 19.5432 52.4703 17.6262C48.8133 13.9987 52.8537 8.04125 57.602 10.0467Z" fill="#E70082"/>
<path d="M113.987 5.45605C113.338 6.07539 113.25 6.4293 113.25 8.40527V10.6467L112.188 11.0891L111.127 11.5314L109.416 9.90937C106.85 7.46152 106.85 7.46152 101.984 12.3277C97.1178 17.1939 97.1178 17.1939 99.5656 19.7598L101.188 21.4703L100.745 22.532L100.303 23.5937H98.0615C96.0855 23.5937 95.7316 23.6822 95.1123 24.3311C94.375 25.0389 94.375 25.0979 94.375 30.6719C94.375 36.2459 94.375 36.3049 95.1123 37.0127C95.7316 37.6615 96.0855 37.75 98.0615 37.75H100.303L100.745 38.8117L101.188 39.8734L99.5656 41.584C97.1178 44.1498 97.1178 44.1498 101.984 49.016C106.85 53.8822 106.85 53.8822 109.416 51.4344L111.127 49.8123L112.188 50.2547L113.25 50.6971V52.9385C113.25 54.9145 113.338 55.2684 113.987 55.8877C114.695 56.625 114.754 56.625 120.328 56.625C125.902 56.625 125.961 56.625 126.669 55.8877C127.318 55.2684 127.406 54.9145 127.406 52.9385V50.6971L128.468 50.2547L129.53 49.8123L131.24 51.4344C133.806 53.8822 133.806 53.8822 138.672 49.016C143.538 44.1498 143.538 44.1498 141.091 41.584L139.469 39.8734L139.911 38.8117L140.353 37.75H142.595C144.571 37.75 144.925 37.6615 145.544 37.0127C146.281 36.3049 146.281 36.2459 146.281 30.6719C146.281 25.0979 146.281 25.0389 145.544 24.3311C144.925 23.6822 144.571 23.5937 142.595 23.5937H140.353L139.911 22.532L139.469 21.4703L141.091 19.7598C143.538 17.1939 143.538 17.1939 138.672 12.3277C133.806 7.46152 133.806 7.46152 131.24 9.90937L129.53 11.5314L128.468 11.0891L127.406 10.6467V8.40527C127.406 6.4293 127.318 6.07539 126.669 5.45605C125.961 4.71875 125.902 4.71875 120.328 4.71875C114.754 4.71875 114.695 4.71875 113.987 5.45605ZM122.687 11.2955C122.687 13.6254 123.13 14.2447 125.135 14.923C125.961 15.1885 127.288 15.7193 128.055 16.1027C128.822 16.4861 129.736 16.8105 130.061 16.8105C130.414 16.8105 131.329 16.1912 132.154 15.4244L133.629 14.0383L135.281 15.7193L136.962 17.3709L135.576 18.8455C134.809 19.6713 134.189 20.5855 134.189 20.9395C134.189 21.2639 134.514 22.1781 134.897 22.9449C135.281 23.7117 135.812 25.0389 136.077 25.8646C136.755 27.8701 137.375 28.3125 139.704 28.3125H141.562V30.6719V33.0312H139.704C137.375 33.0312 136.755 33.4736 136.077 35.4791C135.812 36.3049 135.281 37.632 134.897 38.3988C134.514 39.1656 134.189 40.0799 134.189 40.4043C134.189 40.7582 134.809 41.6725 135.576 42.4982L136.962 43.9729L135.281 45.6244L133.629 47.3055L132.154 45.9193C131.329 45.1525 130.414 44.5332 130.061 44.5332C129.736 44.5332 128.822 44.8576 128.055 45.241C127.288 45.6244 125.961 46.1553 125.135 46.4207C123.13 47.099 122.687 47.7184 122.687 50.0482V51.9062H120.328H117.969V50.0482C117.969 47.7184 117.526 47.099 115.521 46.4207C114.695 46.1553 113.368 45.6244 112.601 45.241C111.834 44.8576 110.92 44.5332 110.596 44.5332C110.242 44.5332 109.328 45.1525 108.502 45.9193L107.027 47.3055L105.376 45.6244L103.695 43.9729L105.081 42.4982C105.847 41.6725 106.467 40.7582 106.467 40.4043C106.467 40.0799 106.142 39.1656 105.759 38.3988C105.376 37.632 104.845 36.3049 104.579 35.4791C103.901 33.4736 103.282 33.0312 100.952 33.0312H99.0937V30.6719V28.3125H100.952C103.282 28.3125 103.901 27.8701 104.579 25.8646C104.845 25.0389 105.376 23.7117 105.759 22.9449C106.142 22.1781 106.467 21.2639 106.467 20.9395C106.467 20.5855 105.847 19.6713 105.081 18.8455L103.695 17.3709L105.376 15.7193L107.027 14.0383L108.502 15.4244C109.328 16.1912 110.242 16.8105 110.596 16.8105C110.92 16.8105 111.834 16.4861 112.601 16.1027C113.368 15.7193 114.695 15.1885 115.521 14.923C117.526 14.2447 117.969 13.6254 117.969 11.2955V9.4375H120.328H122.687V11.2955Z" fill="#E70082"/>
<path d="M117.556 19.1699C115.698 19.6418 113.044 21.2344 111.746 22.6205C111.097 23.3283 110.124 24.8029 109.622 25.8941C108.767 27.6932 108.679 28.1355 108.679 30.7014C108.679 33.3557 108.738 33.6211 109.77 35.7445C111.097 38.4283 112.808 40.0799 115.55 41.3775C117.349 42.2328 117.792 42.3213 120.328 42.3213C122.864 42.3213 123.307 42.2328 125.106 41.3775C127.849 40.0799 129.559 38.4283 130.886 35.7445C131.919 33.6211 131.978 33.3557 131.978 30.6719C131.978 27.9881 131.919 27.7227 130.886 25.5992C128.881 21.5883 125.342 19.1994 120.977 18.993C119.738 18.934 118.205 19.0225 117.556 19.1699ZM122.511 23.9477C125.047 24.7145 127.406 27.9586 127.406 30.6719C127.406 34.3289 123.985 37.75 120.328 37.75C118.47 37.75 116.966 37.0717 115.462 35.5381C112.454 32.5594 112.454 28.7844 115.462 25.8057C117.526 23.7117 119.738 23.1514 122.511 23.9477Z" fill="#E70082"/>
<path d="M134.964 56.1529C134.262 56.2127 133.272 56.3024 132.73 56.3921L131.772 56.5416L131.74 61.565C131.708 67.0966 131.197 70.6548 129.665 75.4389C127.175 83.3327 122.769 90.2099 116.257 96.3993L113.16 99.3296L111.947 98.5522C108.053 96.0704 102.594 96.5787 99.2099 99.7482C97.2626 101.542 96.4006 103.486 96.3687 106.087L96.3368 108.27L94.4214 108.868C84.7166 111.888 71.9153 111.888 62.0509 108.868C60.3909 108.36 58.9224 108.061 58.7947 108.18C58.5393 108.449 56.8793 112.217 57.007 112.306C57.0389 112.336 58.4436 112.785 60.1036 113.323C66.5521 115.297 73.7349 116.223 80.5346 115.954C85.7382 115.745 89.2817 115.177 94.6768 113.772L98.7949 112.695L99.7845 113.592C101.54 115.177 103.647 115.895 106.552 115.895C108.851 115.865 109.33 115.775 111.117 114.878C112.235 114.31 113.48 113.443 113.927 112.964C116.034 110.632 117.055 107.014 116.321 104.532L115.97 103.336L119.098 100.496C128.228 92.1534 133.975 82.047 136.114 70.595C137.103 65.2129 137.327 55.7941 136.465 56.0034C136.337 56.0333 135.667 56.0931 134.964 56.1529ZM108.404 102.11C111.692 103.396 112.49 107.403 109.936 109.795C107.861 111.738 104.924 111.738 102.849 109.795C98.8907 106.117 103.264 100.077 108.404 102.11Z" fill="#E70082"/>
<path d="M50.7738 98.3131C56.4659 92.4969 63 84.4379 63 73.6523C63 56.7505 49.542 43 32.9998 43C16.4577 43 3 56.7505 3 73.6525C3 84.4379 9.53384 92.4974 15.2262 98.3133C17.879 101.024 17.893 106.019 17.8241 109.842H17.3136C16.1253 109.842 15.1621 110.826 15.1621 112.04V139.047C15.1621 140.26 16.1253 141.244 17.3136 141.244H20.175V146.802C20.175 148.016 21.1385 149 22.3266 149H43.6734C44.8614 149 45.8248 148.016 45.8248 146.802V141.244H48.6865C49.8746 141.244 50.838 140.26 50.838 139.047V112.04C50.838 110.826 49.8746 109.842 48.6865 109.842H48.1758C48.1069 106.019 48.1209 101.024 50.7738 98.3131ZM41.5217 144.603H24.4778V141.244H41.5217V144.603ZM19.4651 136.848V132.107H48.6865C49.8746 132.107 53.2866 130.112 46.5349 130.112C46.5349 128.897 49.8746 127.711 48.6865 127.711H19.4651V114.238H46.5349V118.979H18.6875C17.4993 118.979 17.8241 120.058 17.8241 121.272C17.8241 122.486 17.4993 123.375 18.6875 123.375H46.5349V136.848H19.4651ZM37.0705 109.842L44.8453 85.4432C45.1103 84.6114 44.8674 83.698 44.2263 83.1175C43.5856 82.5374 42.6686 82.4008 41.8919 82.7697L38.2833 84.4845L35.0115 79.1584C34.6124 78.5086 33.9132 78.1156 33.1597 78.129C32.4088 78.1395 31.7176 78.5495 31.3361 79.2103L28.2643 84.5321L24.026 82.7325C23.2456 82.4015 22.3483 82.5673 21.7315 83.1568C21.1144 83.7462 20.8919 84.6496 21.1624 85.4674L29.235 109.842H22.1277C22.2045 105.452 22.1589 99.1794 18.2686 95.2044C12.8461 89.6641 7.30251 82.7708 7.30251 73.6525C7.30251 59.175 18.8302 47.3967 32.9994 47.3967C47.1686 47.3967 58.6965 59.175 58.6965 73.6525C58.6965 82.7708 53.1531 89.6641 47.7307 95.2044C43.8406 99.1792 43.7947 105.452 43.8713 109.842H37.0705ZM33.1496 107.944L26.7608 88.6546L28.3415 89.3258C29.3329 89.7463 30.4751 89.3567 31.02 88.4124L33.2466 84.5554L35.6477 88.464C36.2241 89.4022 37.3937 89.7555 38.3775 89.2889L39.2228 88.887L33.1496 107.944Z" fill="#E70082"/>
</svg>
