<svg width="100" height="100" viewBox="0 0 100 100" fill="none" xmlns="http://www.w3.org/2000/svg">
<g clip-path="url(#clip0_524_191)">
<path d="M18.75 35.5105H6.25C2.79883 35.5105 0 38.7093 0 42.4528V92.2541C0 96.1985 2.79883 99.1964 6.25 99.1964H18.75C22.2012 99.1964 25 95.9976 25 92.2541V42.6537C25 38.9035 22.207 35.5105 18.75 35.5105ZM100 43.5243C100 35.2895 94.1309 28.5861 86.9199 28.5861H67.416C69.2773 23.01 70.3125 18.1883 70.3125 15.3534C70.3125 7.80838 65.1953 0 56.6289 0C47.5254 0 45.0352 7.24139 43.0332 13.0586C36.8496 31.0282 31.25 27.8785 31.25 33.9234C31.25 36.7896 33.2734 39.2785 35.9414 39.2785C36.968 39.2785 38.002 38.8944 38.8652 38.1044C53.8574 24.4051 50.1875 10.7148 56.6289 10.7148C59.7695 10.7148 60.9375 13.5609 60.9375 15.3556C60.9375 17.0083 59.4543 24.1841 55.9473 31.3362C55.5477 32.1501 55.3484 33.0519 55.3484 33.9524C55.3484 37.0597 57.5809 39.1089 60.0359 39.1089H86.9109C88.9648 39.3053 90.625 41.2027 90.625 43.5243C90.625 45.7139 89.1082 47.549 87.1738 47.7008C84.7012 47.8926 82.8066 50.2455 82.8066 53.0448C82.8066 56.4981 85.0312 56.6052 85.0312 59.4982C85.0312 65.1614 78.1895 62.2528 78.1895 68.9071C78.1895 71.4117 79.4379 71.8157 79.4379 73.8738C79.4379 78.9321 73.6234 76.9454 73.6234 82.9457C73.6234 83.9535 73.8402 84.2763 73.8402 85.0565C73.8402 87.3892 72.177 89.2866 70.1352 89.2866H59.8754C54.8715 89.2866 49.9105 87.3968 45.9105 83.9716L38.7504 77.8307C37.9076 77.1063 36.9203 76.7568 35.9418 76.7568C33.2367 76.7568 31.2484 79.2971 31.2484 82.1231C31.2484 83.7497 31.8953 85.342 33.1227 86.3934L40.2848 92.5365C45.8984 97.3436 52.8516 100 59.8828 100H70.1426C77.043 100 82.7129 93.8636 83.1895 86.1155C86.6602 83.3854 88.8203 78.8584 88.8203 73.8761C88.8203 73.1961 88.7776 72.5128 88.6952 71.8398C92.1796 69.1276 94.4139 64.5672 94.4139 59.5C94.4139 58.3144 94.2888 57.1472 94.0477 56.0088C97.6367 53.1452 100 48.7031 100 43.5243Z" fill="#E70082"/>
</g>
<defs>
<clipPath id="clip0_524_191">
<rect width="100" height="100" fill="white"/>
</clipPath>
</defs>
</svg>
