<svg width="105" height="100" viewBox="0 0 105 100" fill="none" xmlns="http://www.w3.org/2000/svg">
<g clip-path="url(#clip0_6_118)">
<path d="M4.81934 8.02734C2.8916 8.45703 0.881836 10.293 0.307617 12.168C-0.164062 13.6523 -0.164062 73.8477 0.307617 75.3125C0.799805 76.8359 1.94824 78.1055 3.56836 78.9062L4.9834 79.5898L21.2461 79.6484C36.0322 79.6875 37.5293 79.7266 37.5293 80.0195C37.5293 80.4297 36.5244 88.2617 36.3809 88.8086C36.2988 89.2578 36.2373 89.2578 33.4687 89.2578C30.3926 89.2578 29.9004 89.3945 29.6543 90.332C29.5107 90.8984 29.9619 91.875 30.4541 92.0703C30.9053 92.2266 74.0947 92.2266 74.5459 92.0703C75.0381 91.875 75.4893 90.8984 75.3457 90.332C75.0996 89.3945 74.6074 89.2578 71.5312 89.2578C68.7627 89.2578 68.7012 89.2578 68.6191 88.8281C68.4756 88.2617 67.4707 80.4297 67.4707 80.0195C67.4707 79.7266 68.9678 79.6875 83.7539 79.6484L100.017 79.5898L101.432 78.9062C102.437 78.418 103.052 77.9492 103.585 77.2656C105.103 75.3516 105 77.8516 105 43.7695C105 16.7383 104.959 13.0469 104.692 12.1484C104.241 10.7227 102.888 9.21875 101.411 8.49609L100.201 7.91016L52.9307 7.87109C24.3018 7.87109 5.31152 7.92969 4.81934 8.02734ZM100.099 11.1914C100.734 11.5039 101.145 11.8945 101.473 12.5L101.924 13.3594V43.7305C101.924 74.043 101.924 74.1016 101.493 74.9219C101.247 75.4297 100.755 75.957 100.324 76.2109L99.5654 76.6602H52.5H5.43457L4.67578 76.2109C4.24512 75.957 3.75293 75.4297 3.50684 74.9219C3.07617 74.1016 3.07617 74.043 3.07617 43.7305V13.3594L3.54785 12.5C3.85547 11.8945 4.26562 11.5039 4.90137 11.1914L5.80371 10.7422H52.5H99.1963L100.099 11.1914ZM46.7578 81.0547C47.3936 83.3984 48.1934 84.4531 50.1211 85.3906C51.3311 85.9961 53.6894 85.9961 54.9609 85.3711C56.7861 84.4727 57.6269 83.3789 58.2422 81.0547L58.5703 79.7852L61.4414 79.7266L64.3125 79.668L64.9277 84.4727L65.543 89.2578H52.5H39.457L40.0723 84.4727L40.6875 79.668L43.5586 79.7266L46.4297 79.7852L46.7578 81.0547ZM55.2891 80.3125C54.9609 81.875 53.792 83.0078 52.5 83.0078C51.208 83.0078 50.0391 81.875 49.7109 80.3125L49.5879 79.6875H52.5H55.4326L55.2891 80.3125Z" fill="#E70082"/>
<path d="M7.55654 14.4852L7 14.951V43.4988C7 71.6391 7 72.0273 7.44523 72.4154C8.04629 72.9393 8.69186 73.0558 11.0293 72.9782C12.8324 72.9006 13.0996 72.8617 13.4781 72.4348C14.0569 71.8137 14.0124 71.018 13.389 70.5135C12.9883 70.1836 12.5877 70.0865 11.6081 70.0865H10.3392V43.4988V16.9111H52.6358H94.9548L95.5336 16.4065C95.9787 16.0184 96.0679 15.8049 95.9565 15.3003C95.8897 14.951 95.6003 14.524 95.3554 14.33C94.9103 14.0195 92.4837 14 51.4782 14H8.0908L7.55654 14.4852Z" fill="#E70082"/>
<path d="M91.6588 14.4851C90.9467 15.0868 90.9245 15.9214 91.6143 16.4842C92.0148 16.8141 92.4152 16.9112 93.3943 16.9112H94.6625V43.4999V70.0886H52.2986H9.91234L9.46729 70.5932C9.20028 70.8843 9 71.2336 9 71.3694C9 71.874 9.51177 72.5728 10.0458 72.7862C10.4241 72.9415 22.528 72.9998 53.5223 72.9998C99.3795 72.9998 97.466 73.0385 97.8665 72.1264C97.9333 71.9517 98 59.0067 98 43.3834V14.951L97.4437 14.4851C96.932 14.0388 96.754 14 94.5513 14C92.3485 14 92.1706 14.0388 91.6588 14.4851Z" fill="#E70082"/>
<path d="M22.5127 24.4882L22 24.957V41.3632V57.7695L22.4922 58.3164L22.9843 58.8632L43.5537 58.9609L64.123 59.0586L65.0254 61.8906C65.9892 64.9765 66.4199 65.6015 67.5683 65.6015C68.0605 65.6015 68.4912 65.3086 69.7011 64.1953L71.2392 62.789L73.4336 64.8789C75.6484 66.9882 76.2431 67.3593 77.0634 67.2031C77.3301 67.164 78.8271 65.875 80.4267 64.3515C84.1592 60.7578 84.1386 61.0703 80.9599 58.0039L78.622 55.7382L80.0371 54.3515C81.1855 53.2382 81.4726 52.8281 81.4726 52.3593C81.4726 51.2656 80.8164 50.8554 77.5761 49.9375L74.6025 49.0781L74.541 37.0468L74.5 25.0351L73.9873 24.5078L73.4951 24H48.25H23.0049L22.5127 24.4882ZM71.0136 29.7617V32.2031H48.25H25.4863V29.7617V27.3203H48.25H71.0136V29.7617ZM71.0136 41.8906C71.0136 46.7539 70.9521 48.0429 70.7675 47.9648C69.3525 47.457 62.6875 45.6796 62.1748 45.6796C61.2519 45.6796 60.5547 46.3437 60.5547 47.1836C60.5547 47.6914 62.4209 54.0195 62.9541 55.3867C63.0361 55.582 59.2217 55.6406 44.2715 55.6406H25.4863V45.6796V35.7187H48.25H71.0136V41.8906ZM72.4492 51.9687C74.4179 52.5156 76.1201 53.0039 76.2021 53.0429C76.2842 53.1015 75.997 53.5117 75.5664 53.9609C73.9668 55.6211 74.1103 56.0898 76.9199 58.8046L79.0937 60.914L77.8838 62.0859L76.6738 63.2578L74.5 61.2265C71.6904 58.5898 70.9111 58.4336 69.1474 60.0742C68.7373 60.4453 68.3476 60.6796 68.2861 60.582C68.2451 60.5039 67.7324 58.8828 67.1582 57.0078C66.584 55.1328 65.8457 52.75 65.5175 51.7148L64.9228 49.8398L66.8916 50.4062C67.9785 50.7187 70.4804 51.4218 72.4492 51.9687Z" fill="#E70082"/>
</g>
<defs>
<clipPath id="clip0_6_118">
<rect width="105" height="100" fill="white"/>
</clipPath>
</defs>
</svg>
