<svg width="312" height="298" viewBox="0 0 312 298" fill="none" xmlns="http://www.w3.org/2000/svg">
<g clip-path="url(#clip0_7_134)">
<path d="M14.3203 23.9215C8.59221 25.202 2.62034 30.6732 0.914085 36.2607C-0.487475 40.6839 -0.487475 220.066 0.914085 224.431C2.37659 228.971 5.78908 232.754 10.6032 235.141L14.8078 237.178L63.1313 237.352C107.067 237.469 111.516 237.585 111.516 238.458C111.516 239.681 108.53 263.02 108.103 264.65C107.859 265.988 107.677 265.988 99.4499 265.988C90.3095 265.988 88.8469 266.396 88.1157 269.189C87.689 270.877 89.0297 273.788 90.4922 274.369C91.8329 274.835 220.167 274.835 221.508 274.369C222.97 273.788 224.311 270.877 223.884 269.189C223.153 266.396 221.691 265.988 212.55 265.988C204.323 265.988 204.141 265.988 203.897 264.708C203.47 263.02 200.484 239.681 200.484 238.458C200.484 237.585 204.933 237.469 248.869 237.352L297.193 237.178L301.398 235.141C304.384 233.686 306.212 232.289 307.795 230.252C312.306 224.548 312 231.998 312 130.433C312 49.8802 311.878 38.8798 311.085 36.2023C309.745 31.9537 305.724 27.4719 301.336 25.3184L297.74 23.5723L157.28 23.4559C72.2111 23.4559 15.7828 23.6305 14.3203 23.9215ZM297.437 33.3504C299.324 34.2816 300.545 35.4456 301.52 37.25L302.86 39.811V130.317C302.86 220.648 302.86 220.823 301.579 223.267C300.848 224.781 299.386 226.352 298.106 227.109L295.852 228.447H156H16.1485L13.8938 227.109C12.6141 226.352 11.1516 224.781 10.4203 223.267C9.14064 220.823 9.14064 220.648 9.14064 130.317V39.811L10.5422 37.25C11.4563 35.4456 12.675 34.2816 14.5641 33.3504L17.2453 32.0118H156H294.755L297.437 33.3504ZM138.937 241.543C140.827 248.527 143.203 251.67 148.931 254.464C152.527 256.268 159.534 256.268 163.312 254.406C168.736 251.729 171.234 248.469 173.063 241.543L174.037 237.76L182.569 237.585L191.1 237.411L192.928 251.729L194.756 265.988H156H117.244L119.072 251.729L120.9 237.411L129.431 237.585L137.963 237.76L138.937 241.543ZM164.288 239.331C163.312 243.988 159.839 247.363 156 247.363C152.161 247.363 148.688 243.988 147.712 239.331L147.347 237.469H156H164.714L164.288 239.331Z" fill="white"/>
<path d="M22.4538 43.1659L20.8 44.5541V129.626C20.8 213.484 20.8 214.641 22.123 215.798C23.909 217.359 25.8273 217.706 32.7728 217.475C38.1307 217.244 38.9245 217.128 40.0492 215.856C41.7691 214.005 41.6368 211.634 39.7844 210.13C38.5939 209.147 37.4034 208.858 34.4927 208.858H30.7223V129.626V50.395H156.404H282.151L283.871 48.8914C285.194 47.7348 285.459 47.0985 285.128 45.5949C284.93 44.5541 284.07 43.2817 283.342 42.7034C282.019 41.7781 274.809 41.72 152.964 41.72H24.0413L22.4538 43.1659Z" fill="white"/>
<path d="M272.358 43.1657C270.242 44.9587 270.176 47.4457 272.225 49.1229C273.415 50.1061 274.605 50.3954 277.514 50.3954H281.283V129.63V208.864H155.402H29.4538L28.1314 210.368C27.338 211.235 26.7429 212.276 26.7429 212.681C26.7429 214.185 28.2636 216.267 29.8503 216.903C30.9745 217.366 66.9405 217.539 159.038 217.539C295.299 217.539 289.613 217.655 290.803 214.937C291.002 214.416 291.2 175.84 291.2 129.283V44.5539L289.547 43.1657C288.026 41.8355 287.498 41.72 280.952 41.72C274.407 41.72 273.878 41.8355 272.358 43.1657Z" fill="white"/>
<path d="M66.8949 72.9749L65.3715 74.3719V123.262V172.153L66.834 173.783L68.2962 175.412L129.417 175.704L190.537 175.995L193.218 184.434C196.082 193.63 197.362 195.492 200.774 195.492C202.237 195.492 203.517 194.62 207.112 191.302L211.682 187.111L218.203 193.339C224.784 199.625 226.551 200.731 228.988 200.265C229.781 200.149 234.229 196.308 238.982 191.767C250.073 181.058 250.012 181.99 240.567 172.852L233.62 166.1L237.825 161.967C241.237 158.65 242.09 157.428 242.09 156.031C242.09 152.772 240.14 151.549 230.512 148.814L221.676 146.253L221.493 110.399L221.371 74.6046L219.848 73.0333L218.385 71.52H143.371H68.3574L66.8949 72.9749ZM211.012 88.6899V95.9653H143.371H75.7307V88.6899V81.4145H143.371H211.012V88.6899ZM211.012 124.834C211.012 139.327 210.829 143.168 210.281 142.935C206.076 141.422 186.271 136.125 184.748 136.125C182.006 136.125 179.934 138.104 179.934 140.607C179.934 142.12 185.479 160.978 187.064 165.052C187.307 165.634 175.973 165.809 131.55 165.809H75.7307V136.125V106.442H143.371H211.012V124.834ZM215.278 154.867C221.127 156.497 226.185 157.952 226.429 158.068C226.673 158.242 225.82 159.465 224.54 160.804C219.787 165.751 220.213 167.148 228.562 175.238L235.021 181.524L231.426 185.016L227.831 188.508L221.371 182.455C213.023 174.598 210.707 174.132 205.467 179.021C204.248 180.127 203.09 180.825 202.907 180.534C202.785 180.302 201.262 175.471 199.556 169.883C197.85 164.296 195.656 157.195 194.681 154.11L192.913 148.523L198.764 150.21C201.993 151.142 209.427 153.237 215.278 154.867Z" fill="white"/>
</g>
<defs>
<clipPath id="clip0_7_134">
<rect width="312" height="298" fill="white"/>
</clipPath>
</defs>
</svg>
