<svg width="312" height="298" viewBox="0 0 312 298" fill="none" xmlns="http://www.w3.org/2000/svg">
<g clip-path="url(#clip0_9_161)">
<path d="M23.0343 7.62458C12.614 9.95271 3.41248 19.789 0.914038 31.1386C-0.426587 37.1919 -0.426587 204.293 0.914038 210.288C3.53434 222.103 12.7968 231.765 23.6437 233.918C27.6656 234.733 119.635 235.163 121.829 234.348C125.546 233.01 132.121 230.705 129.257 227.97L127.771 222.918H46.4345C26.0812 222.627 25.1672 222.569 22.7906 221.346C19.3781 219.6 15.539 215.351 13.8937 211.336L12.4922 208.076V152.201V96.3261L144.909 96.1515L277.265 96.0353V125.719V155.402H275.011C272.208 155.402 267.82 157.265 265.627 159.244L263.981 160.757L259.837 159.011C257.522 158.08 255.023 157.09 254.292 156.915C253.256 156.625 252.891 155.926 252.586 153.482C251.855 148.36 249.234 144.693 244.725 142.481C241.8 141.026 231.136 140.386 225.773 141.375C219.131 142.539 214.744 147.021 214.073 153.249L213.769 156.333L208.345 158.545L202.922 160.757L201.033 159.186C197.742 156.625 195.548 155.81 191.648 155.81C189.15 155.81 187.261 156.159 185.555 157.032C182.264 158.662 172.148 168.556 170.93 171.233C169.041 175.657 170.381 182.06 173.977 185.668L175.5 187.181L173.123 192.361L170.747 197.6L167.517 197.89C163.739 198.298 161.241 199.404 158.986 201.79C155.756 205.108 155.147 206.912 154.903 215.177L154.659 222.918H135.769H116.878L115.111 224.606C112.125 227.458 112.978 232.056 116.817 233.918C117.731 234.384 84.2941 234.76 102.514 234.76L170.93 234.558L173.245 239.797L175.622 245.093L173.794 247.014C169.955 251.205 169.041 257.258 171.6 262.031C173.184 264.999 182.873 273.962 185.92 275.301C189.698 276.931 194.025 276.814 197.864 275.01C199.57 274.195 201.398 273.031 201.947 272.449C202.922 271.401 203.165 271.46 208.345 273.496L213.769 275.592L214.439 279.375C215.292 284.264 217.486 287.232 221.751 289.386C224.798 290.899 225.408 291.015 232.903 291.015C237.291 291.015 241.922 290.725 243.202 290.375C248.32 288.862 252.098 284.148 252.708 278.444C252.891 276.698 253.378 275.301 253.744 275.301C254.109 275.301 256.608 274.37 259.289 273.264L264.103 271.227L265.992 272.973C269.831 276.523 276.412 277.513 281.227 275.301C284.395 273.846 294.633 263.951 295.851 261.157C297.802 256.618 296.644 250.564 293.109 247.072L291.281 245.268L293.414 240.67C294.572 238.109 295.547 235.664 295.547 235.257C295.547 234.85 296.4 234.558 297.74 234.558C301.701 234.558 304.872 233.278 307.733 230.485C311.328 227.05 312 224.781 312 215.468C312 208.309 311.878 207.727 310.294 204.817C307.977 200.568 304.687 198.414 299.811 197.949L296.034 197.6L294.633 194.049C293.841 192.07 292.805 189.684 292.256 188.694C291.403 187.123 291.403 186.89 292.256 186.192C292.805 185.785 294.023 184.096 294.998 182.467C298.227 177.112 297.253 171.292 292.195 165.937L290.123 163.783L289.941 98.3051L289.758 32.8849L288.112 28.1703C285.248 20.2547 279.277 12.9793 273.122 9.95271C266.723 6.80976 273.122 6.98436 144.422 7.04256C77.8781 7.10076 24.2531 7.33359 23.0343 7.62458ZM265.261 19.5562C268.978 20.7785 272.939 24.4453 275.194 28.8687L276.961 32.3026L277.144 58.3195L277.327 84.3945H144.727H12.1265L12.3094 58.9015C12.4922 34.0489 12.5531 33.4085 13.8937 30.2074C16.1484 24.8527 20.6578 20.6039 25.5937 19.1488C26.4468 18.916 80.0719 18.6832 144.788 18.6832C251.002 18.625 262.702 18.7414 265.261 19.5562ZM240.094 157.265C240.094 160.117 240.459 162.154 241.191 163.551C242.105 165.413 242.775 165.763 248.016 167.392C251.184 168.382 256.059 170.302 258.802 171.583C261.605 172.921 264.469 174.027 265.261 174.027C266.967 174.027 268.795 172.863 272.573 169.429L275.437 166.81L280.008 171.117C282.506 173.504 284.578 175.715 284.578 176.064C284.578 176.414 283.237 177.985 281.531 179.557C279.886 181.128 278.18 183.282 277.814 184.329C277.205 186.133 277.388 186.774 280.191 192.245C281.897 195.504 283.847 200.044 284.517 202.314C286.345 208.193 287.564 209.124 294.206 209.531L299.508 209.822L299.689 215.585C299.811 219.31 299.63 221.579 299.143 222.103C298.655 222.685 297.009 222.918 293.719 222.918C287.381 222.918 286.467 223.617 284.273 230.31C283.359 233.162 281.409 237.702 279.886 240.495C277.388 245.093 277.205 245.675 277.814 247.48C278.18 248.586 279.886 250.739 281.531 252.311C283.237 253.882 284.578 255.454 284.578 255.803C284.578 256.56 275.925 264.824 275.072 264.824C274.767 264.824 273 263.369 271.172 261.623C266.663 257.258 265.565 257.142 259.106 260.343C256.181 261.798 251.428 263.66 248.503 264.475C241.495 266.512 240.703 267.443 240.703 273.555C240.703 276.698 240.459 278.269 239.85 278.735C239.302 279.2 236.925 279.375 233.025 279.258L226.992 279.084L226.688 274.02C226.261 267.676 225.286 266.512 219.131 264.766C216.755 264.068 212.063 262.205 208.711 260.633C203.165 257.956 202.495 257.782 200.484 258.364C199.327 258.713 197.011 260.285 195.305 261.914C193.659 263.486 192.014 264.824 191.648 264.824C191.283 264.824 189.028 262.904 186.53 260.517C181.594 255.803 181.472 255.163 185.189 252.66C187.383 251.146 189.516 247.945 189.516 246.199C189.516 245.443 188.297 242.59 186.834 239.855C185.372 237.119 183.544 232.871 182.812 230.485C180.802 224.14 179.765 223.267 173.184 222.918L167.883 222.627L167.7 216.05L167.517 209.531H171.965C174.951 209.531 177.084 209.182 178.547 208.483C180.497 207.611 180.863 206.97 182.812 201.383C184.031 198.007 186.042 193.467 187.261 191.256C188.48 189.044 189.516 186.715 189.516 186.133C189.516 184.387 187.992 182.06 185.006 179.265C183.483 177.869 182.203 176.414 182.203 176.123C182.203 175.133 190.308 167.625 191.344 167.625C191.892 167.625 193.416 168.673 194.695 170.011C197.498 172.747 199.814 174.027 201.947 174.027C202.739 174.027 205.786 172.863 208.589 171.467C211.453 170.011 215.78 168.265 218.278 167.625C221.325 166.752 223.275 165.821 224.433 164.657C225.956 163.085 226.078 162.561 226.078 158.429C226.078 155.926 226.261 153.656 226.505 153.482C226.688 153.249 229.856 153.074 233.512 153.074H240.094V157.265Z" fill="white"/>
<path d="M224.25 181.361C214.012 183.922 204.445 191.314 199.997 200.277C196.828 206.505 195.975 210.87 196.341 218.436C196.584 223.151 197.011 225.188 198.351 228.447C202.8 239.099 210.661 246.315 221.934 250.099C227.662 252.078 237.656 252.31 243.445 250.622C256.12 247.014 265.931 237.643 269.709 225.537C271.355 220.24 271.233 211.568 269.465 206.039C265.565 193.991 254.719 184.096 242.409 181.303C237.595 180.255 228.637 180.255 224.25 181.361ZM243.994 194.282C259.716 201.325 263.494 220.532 251.611 232.521C239.545 244.744 218.827 241.718 211.027 226.585C209.137 222.918 208.772 221.521 208.528 217.447C208.223 211.452 209.32 207.494 212.611 202.78C215.597 198.472 220.228 195.097 225.408 193.351C231.197 191.43 238.388 191.779 243.994 194.282Z" fill="white"/>
<path d="M96.4642 129.793C95.7329 130.084 94.6971 130.957 94.1486 131.714C92.9906 133.401 80.986 180.779 80.8642 184.096C80.8033 185.959 81.1078 186.657 82.7531 188.054C86.2267 191.022 91.1016 189.8 92.5642 185.493C93.9658 181.361 104.874 136.952 104.935 135.264C104.935 132.819 103.959 131.131 101.766 130.084C99.8157 129.094 98.475 129.036 96.4642 129.793Z" fill="white"/>
<path d="M55.6967 134.624C53.1374 136.021 35.953 155.053 35.2218 157.265C34.0032 161.164 35.0999 163.027 44.8501 173.504C49.725 178.742 54.2954 183.514 54.9657 184.038C55.6967 184.679 57.2201 185.086 58.7436 185.086C62.2781 185.086 64.5937 182.816 64.5937 179.44C64.5937 177.229 64.1061 176.53 56.6719 168.498C52.3452 163.842 48.7501 159.768 48.7501 159.535C48.7501 159.302 50.3345 157.439 52.2843 155.344C65.0201 141.608 64.5937 142.132 64.5937 139.629C64.5937 135.206 59.6579 132.412 55.6967 134.624Z" fill="white"/>
<path d="M123.216 135.322C121.083 137.068 120.473 139.338 121.57 141.725C121.997 142.656 125.714 147.021 129.736 151.328C133.758 155.635 137.109 159.36 137.109 159.535C137.109 159.768 133.636 163.609 129.431 168.149C120.291 177.985 119.316 180.197 122.911 183.573C124.069 184.737 125.105 185.086 126.994 185.086C128.334 185.086 129.919 184.737 130.467 184.329C133.148 182.408 149.967 163.609 150.577 161.921C151.856 158.254 150.881 156.392 143.934 148.825C140.339 144.926 135.647 139.979 133.453 137.767C129.979 134.391 129.187 133.867 127.237 133.867C125.775 133.867 124.434 134.333 123.216 135.322Z" fill="white"/>
<path d="M38.7869 39.2512C35.7388 40.0433 31.6096 42.5598 30.0856 44.5173C27.3327 48.0592 26.7428 49.7834 26.7428 54.3972C26.7428 58.0789 26.9394 59.1974 27.8735 60.9685C29.6924 64.4635 32.1503 66.7937 35.6898 68.4716C38.5903 69.8231 39.4752 70.0094 42.9653 70.0094C46.2591 70.0094 47.3897 69.7765 49.8478 68.7045C53.6329 67.0269 57.074 63.5782 58.4505 60.0829C59.9254 56.4478 59.6795 50.9485 57.9589 47.6399C54.5178 40.9288 46.2098 37.3403 38.7869 39.2512ZM47.2423 49.597C50.2411 52.1602 50.3394 56.4013 47.488 58.9178C45.2268 60.875 42.867 61.2946 40.4091 60.1761C35.8372 58.0323 35.0015 52.7662 38.7376 49.5504C40.7531 47.7796 45.1775 47.8262 47.2423 49.597Z" fill="white"/>
<path d="M80.3748 39.2512C77.3267 40.0433 73.1974 42.5598 71.6735 44.5173C68.9206 48.0592 68.3307 49.7834 68.3307 54.3972C68.3307 58.0789 68.5273 59.1974 69.4613 60.9685C71.2802 64.4635 73.7383 66.7937 77.2777 68.4716C80.1782 69.8231 81.0631 70.0094 84.5532 70.0094C87.847 70.0094 88.9776 69.7765 91.4357 68.7045C95.2208 67.0269 98.6619 63.5782 100.038 60.0829C101.513 56.4478 101.267 50.9485 99.5468 47.6399C96.1057 40.9288 87.7977 37.3403 80.3748 39.2512ZM88.8302 49.597C91.829 52.1602 91.9273 56.4013 89.0759 58.9178C86.8147 60.875 84.4549 61.2946 81.997 60.1761C77.4251 58.0323 76.5894 52.7662 80.3255 49.5504C82.341 47.7796 86.7654 47.8262 88.8302 49.597Z" fill="white"/>
<path d="M121.963 39.2512C118.915 40.0433 114.785 42.5598 113.261 44.5173C110.509 48.0592 109.919 49.7834 109.919 54.3972C109.919 58.0789 110.115 59.1974 111.049 60.9685C112.868 64.4635 115.326 66.7937 118.866 68.4716C121.766 69.8231 122.651 70.0094 126.141 70.0094C129.435 70.0094 130.565 69.7765 133.024 68.7045C136.809 67.0269 140.25 63.5782 141.626 60.0829C143.101 56.4478 142.855 50.9485 141.135 47.6399C137.694 40.9288 129.386 37.3403 121.963 39.2512ZM130.418 49.597C133.417 52.1602 133.515 56.4013 130.664 58.9178C128.403 60.875 126.043 61.2946 123.585 60.1761C119.013 58.0323 118.177 52.7662 121.913 49.5504C123.929 47.7796 128.353 47.8262 130.418 49.597Z" fill="white"/>
<path d="M197.235 39.2112C187.138 41.4376 181.424 52.013 185.513 60.7794C186.892 63.6549 190.635 67.2265 193.886 68.7109L196.644 70.0095H222.749C248.854 70.0095 248.854 70.0095 251.268 68.9426C255.011 67.3657 257.622 65.0464 259.444 61.846C263.434 54.7494 261.218 46.215 254.125 41.6231C249.79 38.7938 248.51 38.7009 222.503 38.7472C209.648 38.7938 198.27 38.9792 197.235 39.2112ZM248.559 49.3225C251.564 51.3635 252.401 55.0277 250.431 57.7644C248.165 61.0111 248.46 60.9648 223.439 60.9648C211.076 60.9648 200.24 60.8256 199.353 60.6865C197.235 60.2691 194.625 57.7644 194.231 55.6771C193.788 53.5899 195.265 50.1574 196.94 49.3225C199.353 48.1168 201.324 48.0239 223.734 48.1168L246.884 48.2094L248.559 49.3225Z" fill="white"/>
</g>
<defs>
<clipPath id="clip0_9_161">
<rect width="312" height="298" fill="white"/>
</clipPath>
</defs>
</svg>
