<svg width="105" height="100" viewBox="0 0 105 100" fill="none" xmlns="http://www.w3.org/2000/svg">
<g clip-path="url(#clip0_6_96)">
<path d="M7.75195 2.55859C4.24512 3.33984 1.14844 6.64062 0.307617 10.4492C-0.143555 12.4805 -0.143555 68.5547 0.307617 70.5664C1.18945 74.5312 4.30664 77.7734 7.95703 78.4961C9.31055 78.7695 40.2617 78.9139 41 78.6404C42.251 78.1912 44.4638 77.4179 43.5 76.5L43 74.8047H15.627C8.77734 74.707 8.46973 74.6875 7.66992 74.2773C6.52148 73.6914 5.22949 72.2656 4.67578 70.918L4.2041 69.8242V51.0742V32.3242L48.7676 32.2656L93.3105 32.2266V42.1875V52.1484H92.5518C91.6084 52.1484 90.1318 52.7734 89.3936 53.4375L88.8398 53.9453L87.4453 53.3594C86.666 53.0469 85.8252 52.7148 85.5791 52.6562C85.2305 52.5586 85.1074 52.3242 85.0049 51.5039C84.7588 49.7852 83.877 48.5547 82.3594 47.8125C81.375 47.3242 77.7861 47.1094 75.9814 47.4414C73.7461 47.832 72.2695 49.3359 72.0439 51.4258L71.9414 52.4609L70.1162 53.2031L68.291 53.9453L67.6553 53.418C66.5479 52.5586 65.8096 52.2852 64.4971 52.2852C63.6562 52.2852 63.0205 52.4023 62.4463 52.6953C61.3389 53.2422 57.9346 56.5625 57.5244 57.4609C56.8887 58.9453 57.3398 61.0938 58.5498 62.3047L59.0625 62.8125L58.2627 64.5508L57.4629 66.3086L56.376 66.4062C55.1045 66.543 54.2637 66.9141 53.5049 67.7148C52.418 68.8281 52.2129 69.4336 52.1309 72.207L52.0488 74.8047H45.6914H39.334L38.7393 75.3711C37.7344 76.3281 38.0215 77.8711 39.3135 78.4961C39.6211 78.6523 28.3682 78.7786 34.5 78.7786L57.5244 78.7109L58.3037 80.4688L59.1035 82.2461L58.4883 82.8906C57.1963 84.2969 56.8887 86.3281 57.75 87.9297C58.2832 88.9258 61.5439 91.9336 62.5693 92.3828C63.8408 92.9297 65.2969 92.8906 66.5889 92.2852C67.1631 92.0117 67.7783 91.6211 67.9629 91.4258C68.291 91.0742 68.373 91.0938 70.1162 91.7773L71.9414 92.4805L72.167 93.75C72.4541 95.3906 73.1924 96.3867 74.6279 97.1094C75.6533 97.6172 75.8584 97.6562 78.3809 97.6562C79.8574 97.6562 81.416 97.5586 81.8467 97.4414C83.5693 96.9336 84.8408 95.3516 85.0459 93.4375C85.1074 92.8516 85.2715 92.3828 85.3945 92.3828C85.5176 92.3828 86.3584 92.0703 87.2607 91.6992L88.8809 91.0156L89.5166 91.6016C90.8086 92.793 93.0234 93.125 94.6436 92.3828C95.71 91.8945 99.1553 88.5742 99.5654 87.6367C100.222 86.1133 99.832 84.082 98.6426 82.9102L98.0273 82.3047L98.7451 80.7617C99.1348 79.9023 99.4629 79.082 99.4629 78.9453C99.4629 78.8086 99.75 78.7109 100.201 78.7109C101.534 78.7109 102.601 78.2812 103.564 77.3438C104.774 76.1914 105 75.4297 105 72.3047C105 69.9023 104.959 69.707 104.426 68.7305C103.646 67.3047 102.539 66.582 100.898 66.4258L99.627 66.3086L99.1553 65.1172C98.8887 64.4531 98.54 63.6523 98.3555 63.3203C98.0684 62.793 98.0684 62.7148 98.3555 62.4805C98.54 62.3438 98.9502 61.7773 99.2783 61.2305C100.365 59.4336 100.037 57.4805 98.335 55.6836L97.6377 54.9609L97.5762 32.9883L97.5146 11.0352L96.9609 9.45312C95.9971 6.79688 93.9873 4.35547 91.916 3.33984C89.7627 2.28516 91.916 2.34375 48.6035 2.36328C26.209 2.38281 8.16211 2.46094 7.75195 2.55859ZM89.2705 6.5625C90.5215 6.97266 91.8545 8.20312 92.6133 9.6875L93.208 10.8398L93.2695 19.5703L93.3311 28.3203H48.7061H4.08105L4.14258 19.7656C4.2041 11.4258 4.22461 11.2109 4.67578 10.1367C5.43457 8.33984 6.95215 6.91406 8.61328 6.42578C8.90039 6.34766 26.9473 6.26953 48.7266 6.26953C84.4717 6.25 88.4092 6.28906 89.2705 6.5625ZM80.8008 52.7734C80.8008 53.7305 80.9238 54.4141 81.1699 54.8828C81.4775 55.5078 81.7031 55.625 83.4668 56.1719C84.5332 56.5039 86.1738 57.1484 87.0967 57.5781C88.04 58.0273 89.0039 58.3984 89.2705 58.3984C89.8447 58.3984 90.46 58.0078 91.7314 56.8555L92.6953 55.9766L94.2334 57.4219C95.0742 58.2227 95.7715 58.9648 95.7715 59.082C95.7715 59.1992 95.3203 59.7266 94.7461 60.2539C94.1924 60.7812 93.6182 61.5039 93.4951 61.8555C93.29 62.4609 93.3516 62.6758 94.2949 64.5117C94.8691 65.6055 95.5254 67.1289 95.751 67.8906C96.3662 69.8633 96.7764 70.1758 99.0117 70.3125L100.796 70.4102L100.857 72.3438C100.898 73.5938 100.837 74.3555 100.673 74.5312C100.509 74.7266 99.9551 74.8047 98.8477 74.8047C96.7148 74.8047 96.4072 75.0391 95.6689 77.2852C95.3613 78.2422 94.7051 79.7656 94.1924 80.7031C93.3516 82.2461 93.29 82.4414 93.4951 83.0469C93.6182 83.418 94.1924 84.1406 94.7461 84.668C95.3203 85.1953 95.7715 85.7227 95.7715 85.8398C95.7715 86.0938 92.8594 88.8672 92.5723 88.8672C92.4697 88.8672 91.875 88.3789 91.2598 87.793C89.7422 86.3281 89.373 86.2891 87.1992 87.3633C86.2148 87.8516 84.6152 88.4766 83.6309 88.75C81.2725 89.4336 81.0059 89.7461 81.0059 91.7969C81.0059 92.8516 80.9238 93.3789 80.7188 93.5352C80.5342 93.6914 79.7344 93.75 78.4219 93.7109L76.3916 93.6523L76.2891 91.9531C76.1455 89.8242 75.8174 89.4336 73.7461 88.8477C72.9463 88.6133 71.3672 87.9883 70.2393 87.4609C68.373 86.5625 68.1475 86.5039 67.4707 86.6992C67.0811 86.8164 66.3018 87.3438 65.7275 87.8906C65.1738 88.418 64.6201 88.8672 64.4971 88.8672C64.374 88.8672 63.6152 88.2227 62.7744 87.4219C61.1133 85.8398 61.0723 85.625 62.3232 84.7852C63.0615 84.2773 63.7793 83.2031 63.7793 82.6172C63.7793 82.3633 63.3691 81.4062 62.877 80.4883C62.3848 79.5703 61.7695 78.1445 61.5234 77.3438C60.8467 75.2148 60.498 74.9219 58.2832 74.8047L56.499 74.707L56.4375 72.5L56.376 70.3125H57.873C58.8779 70.3125 59.5957 70.1953 60.0879 69.9609C60.7441 69.668 60.8672 69.4531 61.5234 67.5781C61.9336 66.4453 62.6104 64.9219 63.0205 64.1797C63.4307 63.4375 63.7793 62.6562 63.7793 62.4609C63.7793 61.875 63.2666 61.0938 62.2617 60.1562C61.749 59.6875 61.3184 59.1992 61.3184 59.1016C61.3184 58.7695 64.0459 56.25 64.3945 56.25C64.5791 56.25 65.0918 56.6016 65.5225 57.0508C66.4658 57.9688 67.2451 58.3984 67.9629 58.3984C68.2295 58.3984 69.2549 58.0078 70.1982 57.5391C71.1621 57.0508 72.6182 56.4648 73.459 56.25C74.4844 55.957 75.1406 55.6445 75.5303 55.2539C76.043 54.7266 76.084 54.5508 76.084 53.1641C76.084 52.3242 76.1455 51.5625 76.2275 51.5039C76.2891 51.4258 77.3555 51.3672 78.5859 51.3672H80.8008V52.7734Z" fill="#E70082"/>
<path d="M75.4688 60.8594C72.0234 61.7187 68.8037 64.1992 67.3066 67.207C66.2402 69.2969 65.9531 70.7617 66.0762 73.3008C66.1582 74.8828 66.3018 75.5664 66.7529 76.6601C68.25 80.2344 70.8955 82.6562 74.6895 83.9258C76.6172 84.5898 79.9805 84.6679 81.9287 84.1015C86.1943 82.8906 89.4961 79.7461 90.7676 75.6836C91.3213 73.9062 91.2803 70.9961 90.6855 69.1406C89.373 65.0976 85.7227 61.7773 81.5801 60.8398C79.96 60.4883 76.9453 60.4883 75.4688 60.8594ZM82.1133 65.1953C87.4043 67.5586 88.6758 74.0039 84.6768 78.0273C80.6162 82.1289 73.6436 81.1133 71.0186 76.0351C70.3828 74.8047 70.2598 74.3359 70.1777 72.9687C70.0752 70.957 70.4443 69.6289 71.5518 68.0469C72.5566 66.6015 74.1152 65.4687 75.8584 64.8828C77.8066 64.2383 80.2266 64.3554 82.1133 65.1953Z" fill="#E70082"/>
<path d="M32.4639 43.5546C32.2178 43.6523 31.8692 43.9453 31.6846 44.1992C31.2949 44.7656 27.2549 60.664 27.2139 61.7773C27.1934 62.4023 27.2959 62.6367 27.8496 63.1054C29.0186 64.1015 30.6592 63.6913 31.1514 62.246C31.6231 60.8593 35.294 45.957 35.3145 45.3906C35.3145 44.5703 34.9863 44.0038 34.2481 43.6523C33.5918 43.3203 33.1406 43.3007 32.4639 43.5546Z" fill="#E70082"/>
<path d="M18.7441 45.1758C17.8828 45.6445 12.0996 52.0312 11.8535 52.7734C11.4434 54.082 11.8125 54.707 15.0938 58.2227C16.7344 59.9805 18.2725 61.582 18.4981 61.7578C18.7441 61.9727 19.2568 62.1094 19.7695 62.1094C20.959 62.1094 21.7383 61.3477 21.7383 60.2148C21.7383 59.4727 21.5742 59.2383 19.0723 56.543C17.6162 54.9805 16.4063 53.6133 16.4063 53.5352C16.4063 53.457 16.9395 52.832 17.5957 52.1289C21.8818 47.5195 21.7383 47.6953 21.7383 46.8555C21.7383 45.3711 20.0772 44.4336 18.7441 45.1758Z" fill="#E70082"/>
<path d="M41.4668 45.4102C40.749 45.9961 40.5439 46.7578 40.9131 47.5586C41.0566 47.8711 42.3076 49.3359 43.6611 50.7812C45.0146 52.2266 46.1426 53.4766 46.1426 53.5352C46.1426 53.6133 44.9736 54.9023 43.5586 56.4258C40.4824 59.7266 40.1543 60.4688 41.3642 61.6016C41.7539 61.9922 42.1025 62.1094 42.7383 62.1094C43.1894 62.1094 43.7226 61.9922 43.9072 61.8555C44.8095 61.2109 50.4697 54.9023 50.6748 54.3359C51.1054 53.1055 50.7773 52.4805 48.4394 49.9414C47.2295 48.6328 45.6504 46.9727 44.9121 46.2305C43.7431 45.0977 43.4765 44.9219 42.8203 44.9219C42.3281 44.9219 41.8769 45.0781 41.4668 45.4102Z" fill="#E70082"/>
<path d="M13.0533 13.1715C12.0275 13.4373 10.6379 14.2818 10.125 14.9387C9.19853 16.1272 9 16.7058 9 18.2541C9 19.4896 9.06618 19.8649 9.38051 20.4592C9.99264 21.632 10.8198 22.414 12.011 22.977C12.9871 23.4306 13.2849 23.4931 14.4595 23.4931C15.568 23.4931 15.9485 23.4149 16.7757 23.0552C18.0495 22.4923 19.2076 21.335 19.6709 20.1621C20.1672 18.9422 20.0845 17.0968 19.5054 15.9865C18.3474 13.7345 15.5514 12.5303 13.0533 13.1715ZM15.8989 16.6433C16.9081 17.5034 16.9412 18.9266 15.9816 19.7711C15.2206 20.4278 14.4264 20.5687 13.5993 20.1933C12.0606 19.4739 11.7794 17.7068 13.0367 16.6277C13.715 16.0334 15.204 16.0491 15.8989 16.6433Z" fill="#E70082"/>
<path d="M27.0492 13.1715C26.0234 13.4373 24.6337 14.2818 24.1209 14.9387C23.1945 16.1272 22.9959 16.7058 22.9959 18.2541C22.9959 19.4896 23.0621 19.8649 23.3764 20.4592C23.9885 21.632 24.8158 22.414 26.0069 22.977C26.983 23.4306 27.2809 23.4931 28.4554 23.4931C29.5639 23.4931 29.9444 23.4149 30.7716 23.0552C32.0455 22.4923 33.2035 21.335 33.6668 20.1621C34.1631 18.9422 34.0804 17.0968 33.5013 15.9865C32.3433 13.7345 29.5473 12.5303 27.0492 13.1715ZM29.8948 16.6433C30.904 17.5034 30.9371 18.9266 29.9775 19.7711C29.2165 20.4278 28.4223 20.5687 27.5952 20.1933C26.0565 19.4739 25.7753 17.7068 27.0326 16.6277C27.7109 16.0334 29.1999 16.0491 29.8948 16.6433Z" fill="#E70082"/>
<path d="M41.0451 13.1715C40.0193 13.4373 38.6296 14.2818 38.1168 14.9387C37.1904 16.1272 36.9918 16.7058 36.9918 18.2541C36.9918 19.4896 37.058 19.8649 37.3723 20.4592C37.9844 21.632 38.8117 22.414 40.0028 22.977C40.979 23.4306 41.2768 23.4931 42.4513 23.4931C43.5598 23.4931 43.9403 23.4149 44.7675 23.0552C46.0414 22.4923 47.1994 21.335 47.6627 20.1621C48.159 18.9422 48.0763 17.0968 47.4972 15.9865C46.3392 13.7345 43.5432 12.5303 41.0451 13.1715ZM43.8907 16.6433C44.8999 17.5034 44.933 18.9266 43.9734 19.7711C43.2124 20.4278 42.4182 20.5687 41.5911 20.1933C40.0524 19.4739 39.7712 17.7068 41.0285 16.6277C41.7068 16.0334 43.1958 16.0491 43.8907 16.6433Z" fill="#E70082"/>
<path d="M66.3773 13.1581C62.9792 13.9052 61.0563 17.454 62.4322 20.3958C62.8963 21.3607 64.1561 22.5592 65.2501 23.0573L66.1784 23.4931H74.9637C83.7491 23.4931 83.7491 23.4931 84.5613 23.1351C85.8212 22.6059 86.6997 21.8277 87.313 20.7537C88.6556 18.3723 87.9098 15.5084 85.5228 13.9675C84.0641 13.0181 83.6331 12.9869 74.8809 13.0024C70.5545 13.0181 66.7254 13.0803 66.3773 13.1581ZM83.6497 16.5512C84.6608 17.2361 84.9426 18.4657 84.2795 19.384C83.517 20.4735 83.6165 20.458 75.1958 20.458C71.0352 20.458 67.3885 20.4113 67.0901 20.3646C66.3773 20.2245 65.4988 19.384 65.3662 18.6836C65.217 17.9832 65.7143 16.8314 66.2779 16.5512C67.0901 16.1466 67.7532 16.1154 75.2952 16.1466L83.0861 16.1776L83.6497 16.5512Z" fill="#E70082"/>
</g>
<defs>
<clipPath id="clip0_6_96">
<rect width="105" height="100" fill="white"/>
</clipPath>
</defs>
</svg>
