<svg width="312" height="298" viewBox="0 0 312 298" fill="none" xmlns="http://www.w3.org/2000/svg">
<g clip-path="url(#clip0_7_128)">
<path d="M14.3203 23.9215C8.59221 25.202 2.62034 30.6732 0.914085 36.2607C-0.487475 40.6839 -0.487475 220.066 0.914085 224.431C2.37659 228.971 5.78908 232.754 10.6032 235.141L14.8078 237.178L63.1313 237.352C107.067 237.469 111.516 237.585 111.516 238.458C111.516 239.681 108.53 263.02 108.103 264.65C107.859 265.988 107.677 265.988 99.4499 265.988C90.3095 265.988 88.8469 266.396 88.1157 269.189C87.689 270.877 89.0297 273.788 90.4922 274.369C91.8329 274.835 220.167 274.835 221.508 274.369C222.97 273.788 224.311 270.877 223.884 269.189C223.153 266.396 221.691 265.988 212.55 265.988C204.323 265.988 204.141 265.988 203.897 264.708C203.47 263.02 200.484 239.681 200.484 238.458C200.484 237.585 204.933 237.469 248.869 237.352L297.193 237.178L301.398 235.141C304.384 233.686 306.212 232.289 307.795 230.252C312.306 224.548 312 231.998 312 130.433C312 49.8802 311.878 38.8798 311.085 36.2023C309.745 31.9537 305.724 27.4719 301.336 25.3184L297.74 23.5723L157.28 23.4559C72.2111 23.4559 15.7828 23.6305 14.3203 23.9215ZM297.437 33.3504C299.324 34.2816 300.545 35.4456 301.52 37.25L302.86 39.811V130.317C302.86 220.648 302.86 220.823 301.579 223.267C300.848 224.781 299.386 226.352 298.106 227.109L295.852 228.447H156H16.1485L13.8938 227.109C12.6141 226.352 11.1516 224.781 10.4203 223.267C9.14064 220.823 9.14064 220.648 9.14064 130.317V39.811L10.5422 37.25C11.4563 35.4456 12.675 34.2816 14.5641 33.3504L17.2453 32.0118H156H294.755L297.437 33.3504ZM138.937 241.543C140.827 248.527 143.203 251.67 148.931 254.464C152.527 256.268 159.534 256.268 163.312 254.406C168.736 251.729 171.234 248.469 173.063 241.543L174.037 237.76L182.569 237.585L191.1 237.411L192.928 251.729L194.756 265.988H156H117.244L119.072 251.729L120.9 237.411L129.431 237.585L137.963 237.76L138.937 241.543ZM164.288 239.331C163.312 243.988 159.839 247.363 156 247.363C152.161 247.363 148.688 243.988 147.712 239.331L147.347 237.469H156H164.714L164.288 239.331Z" fill="white"/>
<path d="M22.4538 43.1659L20.8 44.5541V129.626C20.8 213.484 20.8 214.641 22.123 215.798C23.909 217.359 25.8273 217.706 32.7728 217.475C38.1307 217.244 38.9245 217.128 40.0492 215.856C41.7691 214.005 41.6368 211.634 39.7844 210.13C38.5939 209.147 37.4034 208.858 34.4927 208.858H30.7223V129.626V50.395H156.404H282.151L283.871 48.8914C285.194 47.7348 285.459 47.0985 285.128 45.5949C284.93 44.5541 284.07 43.2817 283.342 42.7034C282.019 41.7781 274.809 41.72 152.964 41.72H24.0413L22.4538 43.1659Z" fill="white"/>
<path d="M272.358 43.1657C270.242 44.9587 270.176 47.4457 272.225 49.1229C273.415 50.1061 274.605 50.3954 277.514 50.3954H281.283V129.63V208.864H155.402H29.4539L28.1314 210.368C27.338 211.235 26.7429 212.276 26.7429 212.681C26.7429 214.185 28.2636 216.267 29.8504 216.903C30.9746 217.366 66.9406 217.539 159.038 217.539C295.299 217.539 289.613 217.655 290.804 214.937C291.002 214.416 291.2 175.84 291.2 129.283V44.5539L289.547 43.1657C288.027 41.8355 287.498 41.72 280.952 41.72C274.407 41.72 273.878 41.8355 272.358 43.1657Z" fill="white"/>
<path d="M85.4952 70.5429C84.7642 70.8918 83.8499 71.8815 83.4844 72.6962C82.2655 75.5481 83.4844 77.0032 91.2235 81.9506L98.414 86.5488L106.884 115.01C111.516 130.666 115.842 144.344 116.452 145.392L117.609 147.313L114.136 153.832C110.053 161.572 109.687 164.366 112.247 168.033C113.77 170.303 113.831 170.419 112.978 173.504C112.308 175.949 112.247 177.345 112.734 179.674C115.477 192.187 132.783 194.632 139.181 183.399C140.705 180.663 140.887 179.848 140.644 176.298L140.4 172.282H160.875H181.35L181.106 176.065C180.863 179.266 181.106 180.314 182.447 183.05C188.175 194.225 205.116 192.653 208.772 180.605C209.686 177.578 209.747 176.88 208.955 174.028C208.223 171.409 208.223 170.536 208.833 169.372C209.686 167.742 209.381 166.112 207.919 164.541C207.066 163.609 204.141 163.551 163.495 163.551C134.367 163.551 120.047 163.377 120.047 162.969C120.047 162.62 121.266 160.059 122.728 157.265L125.409 152.144L127.786 152.376C131.442 152.668 196.097 145.101 199.57 143.995C203.775 142.598 209.077 137.534 210.417 133.577C210.966 131.947 213.22 122.052 215.414 111.518C219.07 93.7076 219.314 92.2525 218.4 90.972C217.912 90.2154 216.877 89.3425 216.145 89.0514C215.414 88.7602 192.197 87.5962 164.531 86.4323C108.834 84.1624 106.641 84.0459 106.641 83.0565C106.58 82.6491 106.092 81.8341 105.544 81.1356C104.02 79.4477 88.8469 69.8444 87.7499 69.9025C87.2626 69.9025 86.2264 70.1936 85.4952 70.5429ZM127.786 93.9404C128.091 94.2315 130.955 109.713 131.016 111.285C131.016 111.576 127.481 111.751 123.216 111.751H115.416L112.612 102.38L109.809 92.951L118.645 93.3003C123.459 93.4749 127.603 93.7657 127.786 93.9404ZM151.612 94.697L156.609 95.0462V103.369V111.751H148.505H140.4L139.059 103.719C138.328 99.3532 137.719 95.3955 137.719 94.9881C137.719 94.1731 143.264 94.0569 151.612 94.697ZM183.239 96.2102C183.3 96.3267 183.117 99.8771 182.691 104.068L182.02 111.751H173.855H165.75V103.486V95.279L174.403 95.6282C179.095 95.8613 183.117 96.094 183.239 96.2102ZM208.833 97.3745C209.016 97.5491 207.37 106.047 206.273 110.412C205.969 111.693 205.725 111.751 198.595 111.751H191.161L191.588 106.92C191.831 104.301 192.197 100.866 192.38 99.2951L192.745 96.4433L200.667 96.7925C204.994 97.0253 208.65 97.258 208.833 97.3745ZM132.478 120.947C132.844 121.587 136.622 142.715 136.378 142.889C136.256 143.006 134.245 143.238 131.869 143.471C125.409 144.053 124.983 143.588 121.266 131.249C119.62 125.777 118.219 121.179 118.219 120.889C118.219 120.307 132.112 120.365 132.478 120.947ZM156.305 130.666V140.561L151.125 141.259C148.322 141.667 145.884 141.9 145.763 141.783C145.58 141.609 141.984 121.82 141.984 120.889C141.984 120.656 145.214 120.539 149.175 120.597L156.305 120.772V130.666ZM180.741 124.09C180.558 126.127 180.192 130.026 180.009 132.82C179.522 138.524 179.826 138.233 173.977 138.757C171.966 138.99 169.284 139.281 168.066 139.455L165.75 139.804V130.143V120.481H173.428H181.167L180.741 124.09ZM203.958 121.762C203.775 122.518 203.288 124.73 202.861 126.767C201.581 133.111 198.534 136.021 192.258 136.603C189.211 136.894 188.906 136.836 188.906 135.789C188.906 133.926 190.186 121.994 190.43 121.179C190.612 120.656 192.623 120.481 197.498 120.481C204.202 120.481 204.263 120.481 203.958 121.762ZM130.223 173.562C132.966 176.007 131.625 180.488 127.847 181.769C125.897 182.409 123.033 180.954 122.119 178.917C120.047 174.144 126.263 170.012 130.223 173.562ZM198.23 173.097C200.058 174.435 200.728 177.171 199.631 179.15C198.656 181.012 195.67 182.351 193.903 181.769C188.297 179.907 189.15 172.224 194.939 172.282C196.158 172.282 197.62 172.689 198.23 173.097Z" fill="white"/>
</g>
<defs>
<clipPath id="clip0_7_128">
<rect width="312" height="298" fill="white"/>
</clipPath>
</defs>
</svg>
