<svg width="100" height="30" viewBox="0 0 100 30" fill="none" xmlns="http://www.w3.org/2000/svg">
<g clip-path="url(#clip0_101_2)">
<path fill-rule="evenodd" clip-rule="evenodd" d="M0 26.1468H6.11109C6.7422 26.1468 7.25831 25.6307 7.25831 24.9996V14.4112L18.6653 27.1155L30.0728 14.4112V24.9996C30.0728 25.6307 30.5889 26.1468 31.22 26.1468H37.3305V3.45862H32.1417C30.6422 3.45862 29.5244 4.18094 28.9205 4.85283L18.6653 16.274L8.41005 4.85283C7.8067 4.18094 6.68838 3.45862 5.18936 3.45862H0V26.1468Z" fill="#24ABE2"/>
<path fill-rule="evenodd" clip-rule="evenodd" d="M68.6208 26.1468H98.8528C99.4839 26.1468 100 25.6307 100 24.9996V18.957H85.3004L99.9576 3.47958H69.7443C69.1137 3.47958 68.597 3.99625 68.597 4.62679V10.6693H83.278L68.6208 26.1468Z" fill="#24ABE2"/>
<path fill-rule="evenodd" clip-rule="evenodd" d="M53.856 0C63.0819 0 70.5611 6.44874 70.5611 14.5784C70.5611 22.7074 63.0819 29.1562 53.856 29.1562C44.6296 29.1562 37.1509 22.7074 37.1509 14.5784C37.1509 6.44874 44.6296 0 53.856 0ZM53.856 7.28493C58.3548 7.28493 62.2128 10.5504 62.2128 14.5784C62.2128 18.6058 58.4715 21.8712 53.856 21.8712C49.2406 21.8712 45.4987 18.6058 45.4987 14.5784C45.4987 10.5504 49.3573 7.28493 53.856 7.28493Z" fill="#24ABE2"/>
</g>
<defs>
<clipPath id="clip0_101_2">
<rect width="100" height="29.1562" fill="white"/>
</clipPath>
</defs>
</svg>
